<?xml version="1.0" encoding="utf-8"?>
<!-- Generator: Adobe Illustrator 27.5.0, SVG Export Plug-In . SVG Version: 6.00 Build 0)  -->
<svg version="1.1" id="Layer_1" xmlns="http://www.w3.org/2000/svg" xmlns:xlink="http://www.w3.org/1999/xlink" x="0px" y="0px"
	 viewBox="0 0 4000 3000" style="enable-background:new 0 0 4000 3000;" xml:space="preserve">
<g>
	<path style="fill:#F8C7AC;" d="M2729.797,842.424l1.936,6.811c24.091-20.728,54.839-18.879,75.91,4.863l56.423-189.827
		l153.001-100.08c3.929-0.792,2.241,0.45,2.995,2.561c2.184,6.113,2.673,14.005,4.673,20.681
		c20.209,67.439,56.408,126.367,110.963,171.285c0.138-13.048-5.862-27.139-8.2-40.462c-5.045-28.754-4.936-56.916-4.444-86.045
		c46.194,64.359,98.883,128.321,175.166,157.659c-7.741-22.398-13.691-44.661-17.501-68.124l1.947-5.839
		c41.503,60.575,93.192,113.709,147.514,162.764c-15.512,61.085-23.197,124.484-22.905,187.592
		c24.944-24.951,66.381-41.356,98.286-19.459l20.445,25.299c-2.85,8.341,0.677,21.127-0.251,31.865
		c-5.604,64.874-93.991,159.784-156.46,94.693c-50.995,60.172-127.165,100.595-205.388,110.898l0.01,13.633h-1.947
		c-0.159-3.879,0.137-7.81-0.002-11.687c-62.907,8.07-128.084,5.532-188.829-13.617
		c-120.145-37.874-219.004-141.591-204.406-274.446c0.635,0.008,2.412,2.379,3.951,1.136c8.688-34.759,16.379-70.229,25.402-105.117
		c4.725-18.268,13.188-39.737,16.533-57.51c1.661-8.829-3.344-11.718-7.234-1.317c-7.324,19.586-10.727,43.401-17.263,63.526
		l-10.048-20.084c-8.956-13.455-27.992-22.307-40.524-8.097c-2.486,6.129,13.389-1.262,16.48-1.144
		c16.25,0.62,30.282,30.164,28.257,44.911c-9.31-7.851-33.38-17.059-35.01-0.008c12.837-5.843,27.17-2.61,33.114,10.817
		c-3.867,24.477-10.943,48.174-13.658,72.887c-61.925-0.744-79.409-99.604-58.124-146.677
		C2716.956,862.724,2726.629,857.82,2729.797,842.424z M2927.95,726.162c-12.729,1.163-29.449,8.956-38.597,17.892
		c-5.002,4.887-20.878,27.94-16.591,34.221c2.872,2.229,6.542,3.021,10.038,3.623c27.33,4.711,71.881,10.695,99.117,11.841
		c3.551,0.149,11.667,1.098,13.771-1.83C2994.708,756.447,2964.729,722.802,2927.95,726.162z M3335.227,896.924V868.7
		c0-1.687-6.102-19.011-7.44-21.758c-24.021-49.327-93.091-44.671-115.358,2.302L3335.227,896.924z M2924.064,860.365
		c-48.416,4.758-40.877,95.978,9.523,73.899C2969.656,918.463,2963.437,856.495,2924.064,860.365z M3008.17,1023.43
		c-1.332-1.393,13.008-28.244,15.247-32.44c17.025-31.91,36.081-62.833,53.319-94.637l-1.425-7.205
		c-3.589-0.7-4.468,3.715-5.857,5.784c-11.003,16.381-22.528,39.365-32.41,57.13c-11.043,19.853-29.574,49.628-37.56,69.513
		c-0.79,1.966-1.495,3.537-1.035,5.739c29.473,4.602,62.28,17.225,91.427,20.618c9.494,1.105,11.633-3.945,1.16-7.096
		C3065.141,1033.044,3034.763,1029.47,3008.17,1023.43z M3239.432,940.168c-48.416,4.758-40.877,95.978,9.523,73.899
		C3285.024,998.266,3278.805,936.298,3239.432,940.168z M2834.41,967.458c-51.733,8.724-61.891,90.439-10.571,112.804
		C2921.038,1122.621,2945.279,948.762,2834.41,967.458z M2926.416,1048.745c-2.413,0.589-2.612-1.096-4.476,2.413
		c-2.644,4.976-5.989,20.375-6.665,26.349c-3.763,33.269,1.884,62.622,20.875,89.97c37.248,53.638,106.226,65.487,163.524,36.982
		c30.4-15.123,57.785-43.455,69.261-75.768c2.157-6.074-1.019-3.789-5.02-4.035c0.94-0.522,4.146-2.394,3.885-2.91l-238.097-73.681
		C2928.069,1046.788,2926.816,1048.647,2926.416,1048.745z M3260.785,1072.608c-65.167,9.493-64.914,108.145-3.93,117.755
		C3355.315,1205.879,3351.321,1059.42,3260.785,1072.608z M3485.114,1105.181c-2.423-18.036-26.579-19.6-40.982-16.647
		c-26.63,5.459-50.988,45.635-46.133,71.669c0.769,4.122,2.369,10.041,7.299,9.211c-1.192-15.572-5.196-41.384,15.08-44.288
		c7.368-1.055,11.593-0.695,18.486,1.987c4.531,1.763,9.711,9.795,13.157,4.325c-6.123-14.019-21.942-13.239-35.023-12.632
		c-2.35-2.094,9.86-12.911,11.839-14.42c11.769-8.972,26.386-14.433,40.727-7.968
		C3475.826,1099.24,3477.955,1105.941,3485.114,1105.181z"/>
	<path style="fill:#2C1B13;" d="M2729.797,842.424c3.993-19.406,4.681-42.216,8.4-62.646
		c16.513-90.721,70.035-282.743,152.589-332.094c29.139-17.419,67.565-22.302,94.169,2.436c2.971,2.762,2.889,7.531,6.623,7.01
		c39.029-33.59,87.394-59.56,138.838-67.655c123.685-19.463,270.398,52.478,398.529,65.591c6.651,0.681,28.638-3.331,25.51,7.846
		c-1.409,5.036-16.449,25.023-20.721,30.07c-11.739,13.868-26.611,26.689-42.76,35.085c30.103,13.843,58.347,32.919,80.807,57.401
		c56.396,61.476,73.949,154.626,139.14,209.291c4.523,3.792,25.454,16.379,25.442,19.419c-0.032,8.139-30.901,24.913-38.539,27.779
		c-10.434,3.916-27.575,7.807-38.546,8.283c-6.69,0.29-15.347-3.808-19.408-0.061c-18.294,38.532-36.835,77.012-56.394,114.911
		c-15.611,30.25-47.431,77.628-57.47,107.012l-20.445-25.299c-31.905-21.897-73.342-5.492-98.286,19.459
		c-0.292-63.108,7.392-126.506,22.905-187.592c-54.322-49.055-106.011-102.189-147.514-162.764
		c-1.031-1.505-1.718-3.973-1.971-5.824l-1.902-0.006c-1.875,4.577,1.469,8.854,1.927,11.669
		c3.811,23.463,9.76,45.725,17.501,68.124c-76.284-29.337-128.972-93.3-175.166-157.659c-0.491,29.13-0.601,57.291,4.444,86.045
		c2.337,13.323,8.337,27.414,8.2,40.462c-54.555-44.918-90.754-103.846-110.963-171.285c-2-6.676-2.49-14.568-4.673-20.681
		c-0.754-2.111,0.934-3.352-2.995-2.561l-153.001,100.08l-56.423,189.827c-21.071-23.741-51.819-25.59-75.91-4.863L2729.797,842.424
		z"/>
	<path style="fill:#865A39;" d="M1324.267,1171.369c-7.137,5.641-75.192,46.495-79.815,46.714
		c-16.685,0.792-11.57,2.593-25.307,9.732c-2.582,1.342-5.13,2.477-7.787,3.893c-50.722,27.026-100.78,55.365-151.844,81.75
		c-0.59-0.638-0.705-2.395-1.911-2.98c-6.295-3.43-18.6,5.138-25.343,6.873c-0.308-2.487-3.834-7.307-1.947-11.678
		c82.479-33.783,148.21-94.889,183.9-177.189c10.801-24.906,23.993-64.543,24.398-91.418l3.893-11.679
		c48.269-14.786,50.951-82.008,40.318-123.035c-11.411-44.03-46.632-78.147-83.146-32.679h-1.947
		c-8.187-32.512-17.396-64.828-23.851-97.804l-3.398-4.388c-85.749-14.274-172.127-38.695-250.197-76.85
		c-2.667-0.61-3.663,0.132-2.852,2.852c2.159,7.242,10.812,17.666,13.262,25.678l52.887,82.377
		c-71.06-3.376-145.784-32.592-203.062-74.314c-14.658-10.677-27.211-23.245-41.174-34.675
		c-39.157,56.014-83.569,108.157-130.542,157.728c2.95,81.001-8.787,162.057-24.311,241.287
		c-60.489-40.852-106.63-6.464-101.178,63.23c5.429,69.402,80.99,137.415,141.107,75c58.07,56.117,134.872,91.149,215.112,101.182
		c3.846,1.7,3.14,2.911,3.893,5.839c-10.735,0.147-21.521-0.174-32.276-0.08c-2.511,0.022-4.455,2.023-4.711,2.026
		c-43.98,0.532-142.1-35.107-186.885-50.607c-2.078-0.719-4.874-2.854-7.787-3.893c-6.552-2.337-12.9-5.694-20.087-5.973
		c-1.516,3.024-6.082,7.599-7.167,9.866c-46.756-17.674-93.542-35.414-140.137-53.553c-17.654-6.873-35.001-15.444-52.588-22.357
		l3.883-35.026c-4.149-0.743-4.662,1.856-5.815,4.871c-2.932,7.664-3.808,19.865-3.908,28.209
		c-5.125-2.015-10.393-3.808-15.574-5.839c2.417-10.999,3.794-22.182,6.823-33.08c3.401-12.234,9.316-22.629,13.09-33.674
		c0.989-2.895,2.617-5.579-1.449-7.191c-3.053-1.211-6.596,9.079-7.811,11.612c-8.93,18.604-13.798,39.928-16.493,60.386
		c-14.778-5.792-22.327-8.268-35.041-15.571c8.324-72.463,73.28-122.856,92.006-189.266c14.984-53.137,11.129-116.521,17.02-171.785
		c8.681-81.432,43.046-211.969,141.625-224.324c8.383-1.051,19.121,0.937,26.288-0.966c6.024-1.6,38.421-24.44,48.12-29.744
		c119.288-65.229,246.984-88.015,382.006-64.597c97.815,16.964,178.716,60.513,205.788,162.117
		c7.689,28.857,4.862,46.668,7.938,73.813c3.908,34.491,73.913,109.258,96.155,141.323c41.674,60.078,61.664,126.747,62.548,200.147
		C1382.266,1111.818,1354.638,1147.365,1324.267,1171.369z M720.774,659.45c0.889-4.741-0.463-4.893-3.182-7.504
		c-9.858-9.471-65.134-38.73-79.143-43.512c-3.688-1.259-4.179-2.734-7.175,1.393L720.774,659.45z M1012.782,686.7
		c0.273-3.12,0.495-4.502-1.94-6.8c-2.227-2.101-20.14-8.836-25.346-11.639c-11.706-6.303-23.259-13.118-34.834-19.671
		l-52.716-37.781c-3.067,3.449,7.449,12.475,9.695,14.616c10.717,10.217,29.029,22.276,41.841,30.183
		C956.213,659.762,1010.033,689.517,1012.782,686.7z M1082.869,671.162c-34.505-10.5-68.089-21.408-99.113-40.089
		c-9.036-5.441-17.184-14.69-27.409-16.37c-3.457,3.15,16.937,17.19,19.202,18.737c11.83,8.077,28.584,16.771,41.772,22.466
		c9.375,4.048,53.898,20.863,61.105,20.727C1081.783,676.569,1083.38,674.363,1082.869,671.162z M833.684,725.628
		c2.292-2.355-1.386-5.779-3.182-7.504c-7.397-7.106-24.959-15.898-34.716-23.682c-9.741-7.772-18.159-17.723-27.304-25.253
		c-2.195-1.807-3.142-4.724-6.807-3.88c-0.844,3.931,0.862,5.198,2.822,7.864c4.498,6.12,19.178,19.807,25.447,25.163
		C794.388,702.131,830.388,729.015,833.684,725.628z M874.565,696.432c4.319-4.318-21.424-24.93-24.324-29.147
		c-2.506,2.017-3.556,3-2.621,6.443C848.339,676.378,871.228,699.769,874.565,696.432z M625.405,774.289
		c4.887,0.986,4.888-0.645,7.478-3.209c14.13-13.985,49.929-70.478,56.808-89.188c1.395-3.795,3.316-5.833-1.028-8.769
		L625.405,774.289z M812.291,673.094c-4.929,5.411,25.837,31.372,30.223,34.967c11.828,9.696,29.145,22.24,42.43,29.593
		c1.981,1.097,12.023,7.85,12.983,2.553L812.291,673.094z M625.385,686.72c-2.355-2.299-5.781,1.4-7.503,3.183
		c-3.73,3.862-16.963,24.299-20.51,30.1c-1.484,2.427-3.76,4.294-3.115,7.572c4.006,0.712,5.147-0.452,7.804-2.883
		C605.306,721.722,627.963,689.237,625.385,686.72z M1137.373,715.896l-4.719-5.967l-67.291-17.369
		c-0.792,4.138,1.936,4.532,4.739,5.947C1077.548,702.263,1133.748,718.898,1137.373,715.896z M642.905,706.183L563.11,807.378
		c6.105,0.909,9.864-4.823,13.666-8.7c16.259-16.578,56.478-63.349,64.619-83.317C642.663,712.252,643.369,709.577,642.905,706.183z
		 M510.548,871.609c3.191,2.806,19.415-8.524,23.187-10.859c4.629-2.865,30.12-19.479,29.355-23.164
		c-0.286-1.376-4.08-4.459-5.843-2c-11.643,11.962-30.38,19.399-42.693,29.342C512.278,866.766,509.846,868.097,510.548,871.609z
		 M594.238,850.22c-3.406-0.485-6.061,0.273-9.179,1.51c-3.775,1.497-33.289,17.858-36.295,20.154
		c-3.262,2.491-3.784,3.121-3.174,7.512c2.584,2.585,39.693-19.361,44.232-22.906C592.192,854.638,595.103,854.239,594.238,850.22z
		 M1370.978,1015.646c3.598-4.256-15.475-43.165-19.123-49.958c-4.552-8.476-10.82-18.592-16.269-26.555
		c-2.675-3.91-19.347-27.195-21.997-26.628c-2.163,0.463-3.346,3.188-1.999,5.84c3.436,6.765,14.3,17.654,19.326,25.457
		c4.603,7.146,9.832,15.697,13.833,23.151c7.071,13.172,12.891,33.25,19.996,44.239
		C1366.422,1013.784,1367.078,1016.435,1370.978,1015.646z M1328.171,974.79l39.897,87.54c3.714-2.547,3.043-4.407,2.511-8.263
		c-1.754-12.711-26.069-66.939-34.904-76.095C1333.951,976.187,1330.53,972.496,1328.171,974.79z M1343.745,1052.647
		c-0.954,5.138,2.378,34.849,6.803,34.987c4.071-2.666,2.613-4.49,2.407-8.155C1352.816,1077,1348.901,1046.703,1343.745,1052.647z
		 M424.873,1163.593c-4.294-0.715-4.641,1.788-5.726,4.96c-1.335,3.901-7.524,42.17-5.934,43.699l5.823,0.007L424.873,1163.593z"/>
	<path style="fill:#E8F3FF;" d="M2955.617,1295.941c-18.833,57.779-2.758,133.505,60.428,154.66
		c80.932,27.097,161.237-47.936,171.231-125.464c71.321-8.397,141.882-30.852,212.192-44.768l52.561,216.053
		c-49.528,15.345-100.621,27.027-149.897,42.821l7.886-61.276l-3.019-4.863c-4.289,0.025-6.385,35.49-7.366,41.265
		c-0.351,2.065-0.502,7.735-3.321,7.346l-1.978-63.238l-5.819-4.868c-0.093,29.705,1.127,59.028,1.858,88.707
		c0.062,2.517,2.023,4.455,2.026,4.712c0.775,67.536-2.392,133.413,1.967,201.435c1.55,24.186,6.637,48.943,7.767,73.011
		c-3.439-2.877-5.235-0.959-8.418,0.223c-9.255,3.436-18.21,8.169-27.562,11.49c-163.526,58.065-347.106,37.097-497.42-46.748
		c8.13-46.985,12.194-95.233,20.08-142.45c9.372-56.114,23.336-110.781,34.255-166.396c0.563-2.866,2.336-5.561,0.173-8.422
		c0.901,0.496,3.496,2.356,3.872,1.945c5.646-29.826,22.85-59.051,29.785-88.025c2.434-10.169-3.01-7.759-6.501-0.633
		c-10.487,21.407-17.174,50.29-25.231,73.077c-3.333,0.492-2.078-4.632-1.907-6.767c1.791-22.387,7.182-44.722,7.76-67.196
		l-5.824-0.005l-9.741,81.765c-38.669-22.881-78.845-44.09-116.803-68.125l87.602-179.071
		C2843.074,1241.627,2898.783,1270.455,2955.617,1295.941z"/>
	<path style="fill:#8CBFF7;" d="M1211.357,1231.708l81.762,216.053c-33.692,17.807-71.995,40.906-107.069,54.5
		c-6.971-25.895-14.389-52.813-24.425-77.766c-0.63-1.567-6.776-20.096-10.606-15.653c5.554,25.557,15.436,50.208,22.831,75.447
		c1.84,6.28,7.283,15.891,8.306,19.918c2.717,10.701,3.494,28.418,6.441,41.247c17.307,75.334,36.808,154.982,48.067,231.252
		c-148.56,98.29-344.305,128.77-505.507,41.208c-12.613-6.851-26.178-18.18-38.31-24.038c-4.821-2.328-2.026-1.373-5.158,2.294
		c1.901-77.977,13.066-175.705,25.307-253.035c1.931-12.198,6.832-27.317,9.121-40.514c3.375-19.461,6.928-39.029,8.39-58.761
		l-5.823-0.007l-17.528,97.336c-52.922-15.137-105.59-40.227-157.684-58.393c1.866,0.027,3.777,0.439,5.592-0.208l64.49-194.434
		c44.785,15.5,142.905,51.139,186.885,50.607c-22.501,54.994-22.532,187.772,68.528,166.812
		c31.97-7.359,53.842-35.029,72.611-59.724c21.882,41.04,73.98,79.497,117.798,43.782c29.813-24.3,33.239-68.811,25.903-103.802
		c-3.329-15.879-21.303-61.056-31.766-72.373C1110.577,1287.073,1160.635,1258.735,1211.357,1231.708z"/>
	<path style="fill:#205DA2;" d="M2982.871,1887.653l-9.723,97.311c7.735,0.696,4.586-7.89,6.799-11.673
		c0.737-1.26,13.831-8.171,17.575-11.624c17.899-16.507,27.211-46.3,28.177-70.121l26.2,2.027
		c57.76,0.615,116.092,0.092,172.365-13.705c7.169,20.784,18.494,42.822,33.044,59.416c3.878,4.423,19.326,16.549,20.481,18.45
		c0.897,1.475,1.153,3.034,1.103,4.737l-27.374,452.664c-60.357,13.831-104.639,14.292-165.471,1.947
		c-15.895-126.12-27.577-252.971-38.942-379.56c3.526-3.54,25.371,8.38,25.306-3.865l-163.526-21.422l0,5.822l9.735,0.019
		l-0.921,3.924l-269.663,214.065c-4.609-2.492-9.343-1.606-9.733-1.946c-29.747-25.902-63.507-48.868-90.55-79.776
		c-10.878-12.433-18.857-26.926-30.147-38.956c0.619-0.219,1.553,0.298,1.905-0.96c-0.015-0.883-3.221-3.712-3.851-4.879
		c-4.952-9.168-15.234-26.789-9.829-36.12c73.415-74.787,147.818-148.821,220.075-224.701c8.619,7.778,24.523,2.965,34.7,0.633
		c12.394-2.84,29.106-8.261,37.328-18.15C2851.748,1863.627,2920.905,1879.67,2982.871,1887.653z"/>
	<path style="fill:#F8C7AC;" d="M1324.267,1171.369l25.349-10.664c28.181-20.265,77.918-34.286,103.598-55.478
		c28.618-23.617,51.924-60.249,85.396-84.503c12.15-8.804,31.698-21.615,33.033,3.647c1.626,30.78-29.817,41.374-37.129,67.175
		c25.011-4.042,49.938-10.661,75.187-13.366c13.634-1.46,79.947-8.573,56.129,21.089c-4.096,5.1-11.977,5.39-12.567,11.761
		c-15.708-2.491-29.98-1.978-45.863-2.041c-2.785-0.011-6.669,1.741-7.831,1.568c-2.75-0.407-1.442-6.973-5.651-5.347
		c-2.924,1.13-2.353,3.425-2.198,5.849c0.765,11.975,6.94,26.161,5.097,38.91l5.825,0.002c0.273-4.202-1.695-11.76,3.2-13.366
		c4.976-1.633,33.471,0.916,40.38,1.903c7.31,1.045,38.43,4.886,27.38,17.191c-10.611,11.815-27.691-2.744-42.748-3.754
		c-9.948-0.667-25.322,4.214-30.856,3.291c-2.672-0.446-9.016-6.505-12.84-8.278c-15.473-7.174-42.889-16.192-59.354-10.519
		c-3.17,1.092-5.676,1.42-4.959,5.723c18.761-2.355,36.384-0.001,53.876,7.445c5.007,2.131,19.157,11.822,21.161,12.089
		c6.228,0.83,17.891-4.109,25.209-4.105c7.565,0.004,33.179,5.212,36.981,11.834c2.071,3.607-0.614,9.158,2.927,11.676
		c-24.73,17.695-97.776,8.193-133.012,25.642l-223.237,170.947c-21.775-52.773-42.735-105.954-62.295-159.607
		C1249.075,1217.864,1317.13,1177.01,1324.267,1171.369z"/>
	<path style="fill:#F8C7AC;" d="M3430.616,1280.369c67.423-42.365,151.299-55.198,221.903-88.585
		c34.924-16.515,80.066-52.017,114.971-62.173c37.415-10.887,24.684,16.362,7.742,33.046c-8.056,7.933-32.576,22.729-37.243,29.078
		c-2.096,2.851,0.674,7.295,0.31,10.674c38.686,2.435,84.993-5.313,122.11,7.346c17.251,5.883,31.515,19.364,12.112,33.631
		c-20.716-14.75-66.675-22.599-92.392-29.271c-2.677-0.694-7.8-6.122-8.843-0.86c-0.588,2.965,8.289,38.37,10.713,43.717
		l2.931-9.706l2.677,0.215c15.206,8.124,78.637,16.657,87.003,27.873c5.672,7.604-3.188,14.914-10.598,16.446
		c-11.38-15.796-28.877-19.932-47.279-22.803c-10.174-1.588-23.89-0.792-32.376-2.664c-5.445-1.201-20.856-13.119-28.226-16.546
		c-5.779-2.687-31.635-14.768-24.561-2.338c10.501,2.866,20.555,7.144,30.025,12.447c4.579,2.564,14.924,11.698,16.906,12.293
		c5.437,1.633,13.081-0.299,19.049,0.418c14.721,1.768,44.886,5.985,55.383,16.643c5.353,5.435,1.428,11.057,13.749,8.636
		c-20.77,12.725-30.857,10.938-55.562,9.812c-62.447-2.846-84.686-17.712-143.603,15.865
		c-30.065,17.134-62.531,39.044-91.503,58.386c-34.203,22.834-67.574,47.216-100.623,71.651
		C3462.071,1395.904,3441.122,1338.738,3430.616,1280.369z"/>
	<path style="fill:#F8C7AC;" d="M329.494,1186.941c12.715,7.303,20.263,9.779,35.041,15.571c1.975,0.774,4.014,1.23,5.84,1.946
		c5.18,2.031,10.449,3.825,15.574,5.839c2.211,0.869,4.237,1.316,5.84,1.946c17.587,6.913,34.935,15.484,52.588,22.357
		c46.595,18.14,93.381,35.88,140.137,53.553c-19.276,40.276-45.888,116.11-58.401,159.607
		c-63.935-35.757-118.889-85.149-180.981-123.662c-59.71-4.953-120.018,0.446-179.227-9.603l-29.135-8.824
		c18.171,1.841,12.811-4.583,23.491-12.522c21.99-16.346,61.987-7.658,88.521-16.6c15.79-5.321,29.371-19.718,47.63-19.551
		l-0.002-5.818c-20.837-2.031-35.871,15.316-54.48,20.464c-25.762,7.128-59.464-0.5-82.447,14.887
		c-6.178,4.136-10.507,13.072-17.835,13.496c-5.706,0.33-18.702-3.937-15.184-11.339c8.475-17.832,81.855-30.296,101.654-31.519
		l4.986,11.5c3.782-2.465,2.71-4.573,2.491-8.119c-0.234-3.795-6.367-38.76-8.34-38.616c-13.654,8.022-30.689,7.001-46.108,10.347
		c-16.657,3.615-34.395,8.704-48.269,18.89c-2.13-8.249-15.286-7.265-17.134-17.031c-3.006-15.889,28.47-13.295,37.594-16.039
		l98.294-5.867c0.498-3.603-0.04-5.751-1.853-8.85c-2.876-4.916-23.932-20.402-30.296-28.099
		c-8.452-10.222-22.912-31.269-12.687-43.873c2.476-3.052,6.385-4.78,10.271-4.443c11.102,0.963,53.002,35.411,67.619,43.462
		c12.475,6.871,25.845,12.177,39.022,17.529C326.354,1189.037,329.239,1186.794,329.494,1186.941z"/>
	<path style="fill:#F8C7AC;" d="M2762.892,1214.191c-23.561,40.434-53.347,104.349-72.029,147.928
		c-60.446-48.42-114.943-103.848-173.855-154.144c-43.817-23.824-91.134-21.68-138.674-24.847
		c-16.378-1.091-49.064-2.12-53.454-21.491c5.694-0.128,8.206-8.867,13.725-12.553c22.962-15.337,54.487,2.296,76.678-1.158
		c6.815-1.061,21.315-12.297,28.958-15.847c11.39-5.29,25.885-10.639,38.338-11.324l-0.005-5.823
		c-6.48-0.693-12.183,0.472-18.384,2.057c-24.266,6.202-37.768,24.369-64.348,23.213c-26.518-1.153-58.1-13.212-75.928,15.564
		c-11.529-7.911-18.713-18.004-3.617-26.933c10.6-6.27,78.034-14.382,84.397-8.049l-5.791,10.698
		c8.851,7.656,6.753,1.172,9.274-4.255c4.134-8.899,20.936-36.198,21.853-42.467c1.453-9.925-8.501,4.729-9.187,4.896
		c-10.412,2.543-35.275-0.91-48.248-0.016c-12.28,0.846-28.265,3.752-39.928,7.766c-0.389-6.113-7.508-5.894-10.222-12.205
		c-3.489-8.115-0.037-13.406,7.491-16.801c22.416-10.11,99.039,4.164,128.314,5.629c6.789,0.34,13.644-0.162,20.42,0
		c-8.146-16.475-28.173-53.771-19.977-71.534c6.36-13.783,21.17-0.199,27.82,6.292c26.22,25.595,48.099,57.338,76.788,82.831
		C2619.982,1141.984,2695.657,1179.94,2762.892,1214.191z"/>
	<path style="fill:#2A73C5;" d="M944.657,1891.546l19.467,301.696c-4.741,0.612-13.09,3.424-17.52,3.893
		c-39.963,4.229-84.358,5.001-124.59,3.893c11.52-104.922,23.163-210.109,31.139-315.332l-5.826-0.004l-31.154,315.336
		c-26.89-0.899-51.396-3.94-77.869-7.786c-24.341-3.536-42.518-7.461-66.188-13.625c6.329,0.703,4.856,0.52,6.398-4.229
		c2.424-7.468,3.963-15.71,5.904-23.373c24.628-97.252,46.063-195.578,67.514-293.558
		C813.687,1881.166,878.711,1891.711,944.657,1891.546z"/>
	<path style="fill:#383252;" d="M1627.955,2123.171c-2.853,40,8.353,78.143,22.439,114.934l-170.389,134.208
		c-15.444-16.541-30.47-34.041-44.727-51.628c-15.475-19.091-33.207-48.804-48.716-65.157c-0.376-5.267,3.067-8.817,5.893-12.604
		c28.434-38.097,63.945-71.311,91.443-110.021c0.642,0.064,1.311-0.085,1.947,0c4.931,0.657,28.125-0.985,29.192,0.011
		c-0.808,9.771-8.468,47.239-4.005,53.351c0.035,1.879,4.136,1.487,4.972,1.123c5.752-2.504,5.311-47.831,8.776-56.432
		c5.16-0.139,10.431,0.309,15.574,0c0.814,16.52-4.861,37.33-1.937,53.517c1.368,7.575,8.81,7.067,9.819-1.842
		c1.988-17.553-2.63-36.176,1.852-53.622c0.645-0.048,1.301,0.047,1.947,0c4.486-0.33,9.136,0.215,13.635-0.01
		c2.461,2.533,0.616,44.199,3.987,53.435c3.211,8.797,9.621,5.731,9.802-1.828l-4.064-53.543
		C1592.927,2126.131,1610.398,2123.699,1627.955,2123.171z"/>
	<path style="fill:#383252;" d="M925.19,2417.081c-0.051,43.337,12.073,98.145,17.521,142.089l0.01,13.636l-212.865-0.321
		c-10.635-16.162-17.363-35.552-26.984-52.823c-5.752-10.325-12.717-21.438-19.434-31.176c-7.459-10.813-18.436-20.585-23-32.476
		c12.034-7.755,26.258-14.561,38.934-21.411l49.592,42.869l8.8,1.888c0.544-3.623-0.042-5.736-1.844-8.843
		c-3.763-6.485-31.279-26.16-39.044-32.968c-2.927-2.566-5.76-5.421-7.77-8.786c4.952-2.545,10.587-5.418,15.574-7.786
		c3.818-0.048,5.411,2.63,7.817,4.828c10.454,9.546,31.237,31.894,41.721,38.095c3.094,1.83,5.256,2.35,8.853,1.835
		c0.528-3.607-0.022-5.749-1.839-8.848c-7.583-12.931-36.653-26.059-42.925-41.749c1.496-0.64,2.931-1.567,3.893-1.946
		c15.445,4.311,32.338,26.423,44.832,32.066c4.725,2.134,11.618,0.75,8.745-4.849c-5.49-10.7-32.887-21.573-39.949-33.056
		c0.599-0.158,1.322,0.135,1.947,0c31.347-6.764,121.875,0.945,156.544,6.005C918.177,2413.917,921.696,2415.525,925.19,2417.081z"
		/>
	<path style="fill:#383252;" d="M2445.577,2097.867c6.613,24.397-2.884,50.415-0.095,75.032c1.01,8.91,8.451,9.416,9.819,1.842
		c1.263-22.1,0.234-46.367,1.951-68.21c0.47-5.975-0.961-5.009,5.845-4.771c5.083,1.016,10.434,2.755,15.574,3.893l-2.04,74.628
		c4.13,4.657,8.668,2.376,9.774-3.645c2.375-12.93-0.768-34.298-0.028-48.679c0.348-6.767,3.214-13.357,2.027-20.357
		c0.615,0.143,1.327-0.136,1.947,0l5.84,1.946c2.532,0.566,5.171,1.339,7.787,1.947c-1.169,7.003,1.653,13.584,2.027,20.357
		c0.735,13.328-2.236,32.76-0.028,44.786c0.535,2.914,1.992,5.185,4.767,6.37l5.007-2.725l-2.143-63.806
		c0.359-2.206,2.941-0.716,3.997-1.09c11.29,12.03,19.268,26.523,30.147,38.956c27.043,30.908,60.803,53.874,90.55,79.776
		c-16.663,20.729-32.347,42.292-48.724,63.262c-1.838,2.354-4.859,3.682-5.784,4.863c-32.385-9.081-71.515-4.585-96.362,19.433
		l-124.675-108.938c19.241-36.896,32.291-78.562,30.259-120.709C2410.553,2093.344,2428.144,2094.844,2445.577,2097.867z"/>
	<path style="fill:#2A73C5;" d="M1117.915,1866.243c1.22,9.402,5.674,18.083,9.391,26.62
		c33.193,76.235,71.597,150.47,109.359,224.469c-3.882,1.732-7.988,4.261-11.68,5.839c-41.118,17.574-83.466,31.023-126.537,42.821
		l-66.188-280.285C1060.252,1881.692,1090.754,1874.205,1117.915,1866.243z"/>
	<path style="fill:#383252;" d="M3257.358,2413.188h1.947c1.331,3.789,5.418,4.096,7.787,5.839
		c-6.293,14.837-30.827,23.383-40.06,34.883c-2.687,3.347-3.349,5.571-2.758,9.875c3.569,0.638,5.812-0.335,8.893-1.796
		c9.712-4.606,26.58-22.007,36.822-29.365c2.85-2.047,4.163-4.81,8.784-3.864c2.676,2.1,5.524,4.026,7.787,5.839
		c-1.818,5.436-9.197,10.782-13.594,14.631c-5.691,4.982-26.573,20.675-29.331,25.172c-7.448,12.145,5.631,8.331,12.693,2.961
		c12.746-9.692,25.048-25.018,38.019-34.978c3.151,2.615,6.646,5.107,9.733,7.786c4.098,5.576,0.451,2.933-1.738,5.005
		c-5.937,5.62-39.406,34.176-40.164,37.61c-1.848,8.377,5.284,6.472,10.659,3.025c9.308-5.97,24.199-23.848,34.091-32.09
		c2.884-2.403,4.423-4.54,8.832-3.818c9.656,8.677,18.235,17.972,27.254,27.25c-33.57,20.179-57.967,56.236-69.318,93.544
		l-160.404-7.892c3.718-32.948-21.405-64.628-48.658-79.813c2.126-25.987,3.319-52.462,9.734-77.857
		c1.142,0.278,2.735-0.267,3.894,0c2.603,0.6,5.173,1.416,7.787,1.947c60.832,12.345,105.114,11.885,165.471-1.947
		C3253.195,2414.75,3255.17,2412.983,3257.358,2413.188z"/>
	<path style="fill:#2A73C5;" d="M1026.419,1885.707l66.188,282.231c-40.883,10.872-80.578,19.605-122.643,25.303l-19.467-301.696
		C975.699,1891.181,1001.493,1889.051,1026.419,1885.707z"/>
	<path style="fill:#F4F4F4;" d="M660.436,2456.009c4.565,11.891,15.542,21.663,23,32.476c6.717,9.738,13.683,20.851,19.434,31.176
		c9.621,17.272,16.349,36.661,26.984,52.823l212.865,0.321l-0.01-13.636c1.065,8.592,1.549,15.192,1.969,24.31
		c0.191,4.148,5.404,24.351-2.942,24.351H577.701c-7.286,0-7.034-18.882-6.787-24.304
		C573.553,2525.532,614.795,2485.423,660.436,2456.009z"/>
	<path style="fill:#F4F4F4;" d="M1480.005,2372.313l170.389-134.208c-14.086-36.791-25.292-74.935-22.439-114.934
		c45.155-1.358,88.549,2.295,124.614,32.092c2.925,2.416,21.639,20.743,22.427,22.448c1.187,2.57,1.179,3.191-0.002,5.757
		c-0.865,1.88-26.016,24.5-30.209,28.292c-72.898,65.935-156.701,123.859-234.176,184.406c-2.517,1.57-4.424,1.793-7.175,0.541
		C1499.406,2394.874,1484.326,2376.942,1480.005,2372.313z"/>
	<path style="fill:#FFF5C5;" d="M925.19,2417.081c-3.493-1.555-7.013-3.164-10.873-3.728c-34.669-5.06-125.198-12.769-156.544-6.005
		c2.857-3.386,1.352-6.162,1.052-9.66c-3.109-36.301-7.497-72.819-10.786-109.072l184.091,0.16l4.741-6
		C935.301,2326.521,925.241,2373.579,925.19,2417.081z"/>
	<path style="fill:#2A73C5;" d="M749.985,1858.457l-5.229,5.386l-74.586,315.774c-23.104-6.144-46.003-12.834-68.011-22.353
		l93.318-324.11C708.951,1841.679,734.733,1852.73,749.985,1858.457z"/>
	<path style="fill:#F8C7AC;" d="M816.174,2201.028c1.943,0.065,3.896-0.053,5.84,0c40.232,1.108,84.627,0.336,124.59-3.893
		l-9.734,85.643l-4.741,6l-184.091-0.16c-2.885-31.801-5.282-63.756-9.734-95.375
		C764.777,2197.087,789.283,2200.128,816.174,2201.028z"/>
	<path style="fill:#FFF5C5;" d="M1483.898,2132.903c-27.498,38.71-63.009,71.923-91.443,110.021
		c-2.826,3.787-6.27,7.337-5.893,12.604c-20.407-21.517-62.625-49.292-87.602-70.071l112.91-122.625
		c0.308,0.282,4.535-0.221,7.873,2.785C1442.081,2085.737,1461.079,2112.89,1483.898,2132.903z"/>
	<path style="fill:#2A73C5;" d="M1234.718,1819.529l168.484,196.623c1.125,3.156-15.314,15.025-18.587,17.484
		c-10.67,8.017-23.684,16.111-35.041,23.357l-157.684-217.999c11.972-5.252,24.107-11.77,35.68-17.942
		C1230.055,1819.726,1234.012,1819.957,1234.718,1819.529z"/>
	<path style="fill:#E8F3FF;" d="M3302.133,1825.368c0.201,14.358-3.109,28.405-1.947,42.821c-0.017-0.256-1.771-2.241-2.026-4.71
		c-0.497-4.815,0.461-9.917,0.059-14.754c-1.125-1.475-7.177,5.502-7.767,5.839c-1.136,0.648-2.631,1.286-3.894,1.946
		c-17.285,9.048-41.476,18.529-60.348,23.357c-0.609,0.156-1.334-0.15-1.947,0c-56.273,13.797-114.605,14.321-172.365,13.705
		l-26.2-2.027h-5.84c-10.068-2.793-20.829-2.631-31.147-3.893c-1.883-0.23-3.964,0.242-5.84,0
		c-61.966-7.984-131.122-24.026-184.938-56.446c-1.378-0.83-2.966-1.35-3.894-1.946c-9.993-6.424-18.675-15.997-29.201-21.411
		c-0.661-4.772,0.959-9.112,1.947-13.625C2928.444,1881.476,3132.22,1901.906,3302.133,1825.368z"/>
	<path style="fill:#8CBFF7;" d="M1236.665,1780.6c1.244,8.936,5.3,18.492,4.03,28.362c-0.778,6.051-2.042,4.404-5.253,7.437
		c-1.002,0.946-0.586,3.046-0.723,3.129c-0.706,0.428-4.663,0.197-7.147,1.522c-11.573,6.173-23.708,12.69-35.68,17.942
		c-1.435,0.629-2.736,1.453-3.893,1.946c-21.403,9.123-45.895,18.664-68.135,25.303c-0.596,0.178-1.349-0.175-1.947,0
		c-27.161,7.963-57.663,15.45-85.656,19.464c-1.861,0.267-3.97-0.251-5.84,0c-24.926,3.344-50.72,5.474-75.922,5.839
		c-1.946,0.028-3.894-0.005-5.84,0c-65.946,0.165-130.97-10.38-192.725-33.089c-0.572-0.21-1.378,0.214-1.947,0
		c-15.252-5.727-41.035-16.778-54.508-25.304c-1.923-1.217-7.47-3.844-7.823-5.271c0.166-9.904-0.168-19.875,0.036-29.765
		c38.58,28.276,83.816,49.116,130.01,61.732c121.097,33.071,250.705,13.569,361.884-41.92c14.427-7.201,39.816-20.219,51.907-29.852
		C1234.222,1785.903,1236.725,1784.771,1236.665,1780.6z"/>
	<path style="fill:#F8C7AC;" d="M1411.869,2062.832l-112.91,122.625c-22.528-18.743-44.457-37.675-66.154-57.462
		c-2.408-2.196-4.008-4.87-7.822-4.824c3.693-1.578,7.798-4.107,11.68-5.839c2.581-1.152,4.447-3.254,5.84-3.893
		c36.229-16.598,69.067-33.079,103.176-54.5c1.214-0.763,2.687-1.177,3.893-1.947c11.357-7.246,24.371-15.34,35.041-23.357
		C1393.46,2042.645,1402.738,2054.473,1411.869,2062.832z"/>
	<path style="fill:#205DA2;" d="M3021.805,2033.635c3.1,0.497,19.134,0.474,19.584,3.069l36.871,378.43
		c-1.158-0.267-2.751,0.278-3.894,0c-6.127-1.488-26.437-6.803-30.621-9.285c-2.339-1.387-4.318-2.038-4.43-5.303L3021.805,2033.635
		z"/>
	<path style="fill:#383252;" d="M2262.585,2132.903l268.647,235.517c-3.133,3.437-5.536,13.467-14.301,13.228l-267.988-220.497
		l-5.565-7.445C2247.886,2145.037,2255.591,2139.292,2262.585,2132.903z"/>
	<path style="fill:#E19D7B;" d="M2973.137,1297.887c60.745,19.149,125.922,21.687,188.829,13.617
		c0.139,3.877-0.156,7.808,0.002,11.687c0.132,3.232-0.055,6.494,0,9.732c-47.394,37.84-102.957,44.01-158.378,19.185
		c-6.936-3.107-29.892-16.216-31.997-22.584c-0.902-2.728-0.301-5.523-0.403-8.28c-0.277-7.46,1.205-12.557,1.947-19.464
		C2973.274,1300.508,2973.046,1299.169,2973.137,1297.887z"/>
	<path style="fill:#383252;" d="M3399.469,2592.259c0.015,3.838,0.986,20.508-3.242,21.49c-19.365-0.491-38.792,0.366-58.16,0.001
		c-25.543-0.483-52.155-3.344-77.708-4.053c-59.088-1.64-122.758,0.507-181.204-3.734c-3.46-0.251-18.279-2.111-19.516-3.836
		c-2.548-8.52,0.847-16.646,1.101-25.44L3399.469,2592.259z"/>
	<path style="fill:#383252;" d="M2393.015,2092.028l-5.832-0.01c0.312,26.254-4.92,54.404-13.079,79.397
		c-1.939,5.939-12.406,34.321-17.323,35.357c-29.534-21.848-54.988-48.913-83.414-72.001c-2.893-2.349-4.404-4.562-8.835-3.815
		C2305.078,2095.866,2340.673,2088.099,2393.015,2092.028z"/>
	<path style="fill:#205DA2;" d="M3300.186,1868.189c1.37,20.253,0.45,44.668,0.08,65.285
		c-2.594,144.625-18.313,289.525-27.314,433.992c-0.515,8.271,1.969,34.598-1.935,38.937c-2.249,2.5-9.469,2.907-11.712,6.784
		h-1.947l33.094-558.624c0.59-0.337,6.643-7.314,7.767-5.839c0.402,4.836-0.556,9.938-0.059,14.754
		C3298.415,1865.948,3300.168,1867.933,3300.186,1868.189z"/>
	<path style="fill:#383252;" d="M3399.469,2588.366l-14.628-3.873l-102.178-3.922c3.802-26.415,22.538-48.967,38.887-69.139
		l23.411-22.333C3373.334,2518.725,3397.326,2544.444,3399.469,2588.366z"/>
	<path style="fill:#8CBFF7;" d="M1244.452,1218.083c19.56,53.653,40.52,106.834,62.295,159.607
		c3.356,8.132,20.998,44.521,20.926,49.36c-0.094,6.28-24.425,15.427-30.659,18.764l-77.869-218
		C1232.882,1220.677,1227.767,1218.875,1244.452,1218.083z"/>
	<path style="fill:#E8F3FF;" d="M2973.137,1301.78c-0.742,6.907-2.224,12.005-1.947,19.464l-3.688,31.897
		c15.08,106.542,164.308,85.471,195.299-0.688c0.431-1.2-0.769-15.762-0.833-19.531c-0.055-3.238,0.132-6.5,0-9.732h1.947
		c-1.786,6.065,10.842,4.246,15.574,3.893c-9.707,78.745-102.597,154.859-179.345,108.274
		c-44.396-26.948-54.481-89.662-36.74-135.524C2965.713,1300.774,2970.402,1300.356,2973.137,1301.78z"/>
	<path style="fill:#0A3866;" d="M2648.035,2236.063l269.663-214.065l0.921-3.924l-9.735-0.019l0-5.822l163.526,21.422
		c0.065,12.245-21.78,0.325-25.306,3.865c11.365,126.589,23.047,253.44,38.942,379.56c-2.614-0.531-5.184-1.347-7.787-1.947
		l-36.871-378.43c-0.45-2.595-16.484-2.572-19.584-3.069c-26.466-4.245-53.145-8.834-79.815-11.679
		c-4.589-0.489-9.207-3.009-13.567-1.018l-276.494,217.071C2650.571,2237.355,2649.368,2236.784,2648.035,2236.063z"/>
	<path style="fill:#8CBFF7;" d="M611.768,1284.262l-64.242,198.535c-4.446-0.611-24.937-6.804-26.391-9.734
		c1.257-7.63,2.895-18.064,4.977-25.301c12.513-43.497,39.126-119.331,58.401-159.607c1.085-2.267,5.651-6.842,7.167-9.866
		C598.868,1278.568,605.216,1281.925,611.768,1284.262z"/>
	<path style="fill:#E8F3FF;" d="M3401.415,1280.369c8.687-1.655,17.662-6.014,26.87-3.448l2.331,3.448
		c10.506,58.369,31.455,115.535,44.774,173.232c1.215,5.262,6.565,28.81,5.603,31.775c-2.064,6.36-19.859,7.432-25.07,9.1
		c-15.331-69.962-29.519-140.483-48.399-209.595C3406.202,1280.042,3408.623,1279.663,3401.415,1280.369z"/>
	<path style="fill:#205DA2;" d="M2941.99,2021.957l-271.21,225.356c-7.266-0.906-13.089-6.528-18.851-9.303l276.494-217.071
		C2932.783,2018.948,2937.401,2021.467,2941.99,2021.957z"/>
	<path style="fill:#7BAEE5;" d="M1236.665,1780.6c0.061,4.171-2.443,5.303-5.173,7.478c-12.091,9.632-37.48,22.651-51.907,29.852
		c-111.178,55.489-240.787,74.991-361.884,41.92c-46.195-12.616-91.431-33.456-130.01-61.732c0.013-0.649-0.016-1.298,0-1.946
		c3.132-3.668,0.337-4.622,5.158-2.294c12.132,5.858,25.697,17.187,38.31,24.038c161.201,87.561,356.947,57.082,505.507-41.208
		C1236.848,1777.948,1236.491,1779.354,1236.665,1780.6z"/>
	<path style="fill:#231F35;" d="M2393.015,2092.028c2.032,42.147-11.017,83.813-30.259,120.709l124.675,108.938
		c24.847-24.018,63.978-28.514,96.362-19.433c-0.956,1.219-1.942,3.361-3.894,5.839c-21.513-6.182-43.256-4.985-64.219,2.942
		c-5.761,2.179-24.751,10.069-19.61,17.553c8.405,12.236,30.703,22.185,39.054,35.951c-1.432,1.641-2.788,2.68-3.893,3.893
		l-268.647-235.517c0.674-0.616,1.253-1.346,1.947-1.947c4.431-0.748,5.942,1.465,8.835,3.815
		c28.426,23.088,53.88,50.153,83.414,72.001c4.917-1.037,15.385-29.418,17.323-35.357c8.158-24.993,13.391-53.143,13.079-79.397
		L2393.015,2092.028z"/>
	<path style="fill:#CFD6E2;" d="M3302.133,1821.475c0.061,1.291-0.018,2.598,0,3.893c-169.912,76.538-373.688,56.108-535.348-31.143
		c0.255-1.166-0.236-2.701,0-3.893c0.042-0.214,1.488-1.238,1.947-3.893c150.314,83.845,333.895,104.813,497.42,46.748
		c9.352-3.321,18.307-8.054,27.562-11.49C3296.897,1820.516,3298.694,1818.598,3302.133,1821.475z"/>
	<path style="fill:#231E35;" d="M3343.014,2487.152c0.639,0.657,1.311,1.283,1.947,1.946l-23.411,22.333
		c-16.349,20.173-35.085,42.725-38.887,69.139l102.178,3.922l14.628,3.873c0.063,1.289-0.005,2.599,0,3.893l-338.729-15.571
		c0.056-1.944-0.043-3.895,0-5.839l46.731,1.956c2.945-31.893-20.883-54.809-42.837-73.974c0.146-1.927-0.157-3.915,0-5.839
		c27.254,15.185,52.376,46.864,48.658,79.813l160.404,7.892C3285.046,2543.388,3309.444,2507.331,3343.014,2487.152z"/>
	<path style="fill:#E19E7C;" d="M2332.667,1097.405c11.663-4.014,27.648-6.919,39.928-7.766c12.973-0.894,37.836,2.559,48.248,0.016
		c0.686-0.168,10.64-14.822,9.187-4.896c-0.918,6.269-17.72,33.568-21.853,42.467c-2.521,5.427-0.423,11.911-9.274,4.255
		l5.791-10.698c-6.363-6.333-73.797,1.78-84.397,8.049c-15.096,8.929-7.912,19.022,3.617,26.933
		c17.829-28.775,49.411-16.717,75.928-15.564c26.58,1.156,40.083-17.011,64.348-23.213c6.201-1.585,11.905-2.749,18.384-2.057
		l0.005,5.823c-12.453,0.684-26.948,6.034-38.338,11.324c-7.643,3.549-22.143,14.786-28.958,15.847
		c-22.191,3.454-53.716-14.179-76.678,1.158c-5.519,3.686-8.031,12.425-13.725,12.553c-5.857,0.132-16.885-10.165-18.6-15.466
		c-3.235-9.994,2.603-12.527,2.79-18.484c0.088-2.807-2.032-5.944-1.714-9.675
		C2308.296,1106.984,2323.642,1100.511,2332.667,1097.405z M2416.366,1095.469c-23.26,0.042-87.636-0.913-101.309,20.337
		c-1.538,2.391-2.422,3.855-1.847,6.893c30.834-10.374,61.847-10.153,94.094-10.034L2416.366,1095.469z"/>
	<path style="fill:#E19E7C;" d="M132.876,1251.173c13.874-10.186,31.612-15.274,48.269-18.89
		c15.419-3.347,32.454-2.325,46.108-10.347c1.973-0.145,8.106,34.821,8.34,38.616c0.219,3.546,1.291,5.654-2.491,8.119l-4.986-11.5
		c-19.798,1.223-93.179,13.687-101.654,31.519c-3.518,7.402,9.478,11.669,15.184,11.339c7.329-0.424,11.657-9.359,17.835-13.496
		c22.983-15.388,56.685-7.76,82.447-14.887c18.609-5.148,33.643-22.495,54.48-20.464l0.002,5.818
		c-18.259-0.167-31.839,14.23-47.63,19.551c-26.534,8.941-66.53,0.254-88.521,16.6c-10.68,7.939-5.319,14.363-23.491,12.522
		c-7.169-0.726-17.922-6.312-17.744-14.603c0.092-4.271,3.451-6.232,3.769-8.171c0.361-2.196-2.967-4.618-3.508-7.507
		C117.138,1263.923,124.573,1257.268,132.876,1251.173z M226.327,1251.177l-1.975-19.484c-24.304,5.318-79.391,9.407-95.085,30.468
		c-2.52,3.381-7.544,14.744,0.347,14.035c2.243-0.202,23.372-10.719,30.097-12.79
		C180.783,1256.915,204.376,1253.316,226.327,1251.177z"/>
	<path style="fill:#E19E7C;" d="M3872.521,1243.387c6.95,4.949,13.314,10.83,11.68,20.301c-0.499,2.892-3.924,5.295-3.547,7.53
		c0.889,5.265,6.794,5.254,1.335,15.718c-4.08,7.821-9.997,7.696-15.309,10.95c-12.321,2.421-8.396-3.201-13.749-8.636
		c-10.497-10.658-40.662-14.875-55.383-16.643c-5.969-0.717-13.612,1.215-19.049-0.418c-1.981-0.595-12.326-9.729-16.906-12.293
		c-9.47-5.303-19.524-9.58-30.025-12.447c-7.074-12.43,18.782-0.349,24.561,2.338c7.37,3.427,22.781,15.345,28.226,16.546
		c8.487,1.872,22.202,1.076,32.376,2.664c18.402,2.872,35.899,7.007,47.279,22.803c7.41-1.531,16.27-8.842,10.598-16.446
		c-8.366-11.216-71.797-19.748-87.003-27.873l-2.677-0.215l-2.931,9.706c-2.424-5.347-11.301-40.752-10.713-43.717
		c1.043-5.262,6.166,0.166,8.843,0.86C3805.846,1220.788,3851.805,1228.637,3872.521,1243.387z M3876.404,1266.735
		c3.693-22.927-38.877-30.996-56.446-35.997c-5.315-1.513-37.251-10.367-38.922-8.751l2.307,16.164l2.839,3.001L3876.404,1266.735z"
		/>
	<path style="fill:#E8F3FF;" d="M2780.412,1214.191c-30.925,58.114-60.493,117.372-83.709,179.071
		c-19.421-12.217-15.044-9.673-5.84-31.143c18.681-43.579,48.468-107.494,72.029-147.928c0.778-1.336,3.97-5.395,5.08-5.645
		C2772.537,1209.362,2776.249,1212.39,2780.412,1214.191z"/>
	<path style="fill:#CFD6E2;" d="M2959.51,1295.941l1.947,1.946c0.756,0.332,1.375,1.714,1.947,1.946
		c-17.741,45.862-7.656,108.575,36.74,135.524c76.748,46.585,169.639-29.529,179.345-108.274c1.455-0.108,4.78-1.592,7.787-1.946
		c-9.994,77.528-90.299,152.561-171.231,125.464c-63.186-21.156-79.261-96.881-60.428-154.66
		C2956.519,1296.345,2958.609,1295.536,2959.51,1295.941z"/>
	<path style="fill:#383252;" d="M2579.9,2308.081c-14.981,19.028-28.784,38.118-44.775,56.446
		c-8.351-13.765-30.649-23.715-39.054-35.951c-5.141-7.484,13.849-15.375,19.61-17.553
		C2536.644,2303.096,2558.387,2301.899,2579.9,2308.081z"/>
	<path style="fill:#E19E7C;" d="M1662.996,1181.101c-3.541-2.518-0.856-8.068-2.927-11.676c-3.802-6.622-29.416-11.83-36.981-11.834
		c-7.318-0.003-18.982,4.935-25.209,4.105c-2.004-0.267-16.154-9.958-21.161-12.089c-17.492-7.446-35.116-9.8-53.876-7.445
		c-0.717-4.303,1.79-4.631,4.959-5.723c16.465-5.673,43.881,3.345,59.354,10.519c3.824,1.773,10.169,7.833,12.84,8.278
		c5.534,0.923,20.908-3.958,30.856-3.291c15.057,1.009,32.137,15.569,42.748,3.754c11.05-12.305-20.07-16.147-27.38-17.191
		c-6.909-0.987-35.404-3.536-40.38-1.903c-4.895,1.606-2.927,9.164-3.2,13.366l-5.825-0.002c1.843-12.749-4.332-26.935-5.097-38.91
		c-0.155-2.423-0.726-4.719,2.198-5.849c4.209-1.626,2.902,4.94,5.651,5.347c1.162,0.172,5.046-1.579,7.831-1.568
		c15.882,0.063,30.154-0.45,45.863,2.041c9.747,1.546,26.961,4.62,28.867,16.959c0.745,4.824-3.082,8.281-3.155,11.617
		c-0.083,3.776,5.109,5.739,2.991,14.729c-2.025,8.592-12.262,9.713-14.132,13.05c-0.986,1.759,1.987,6.752,0.833,10.563
		C1667.64,1181.335,1664.01,1180.375,1662.996,1181.101z M1640.609,1114.923c-11.343-1.048-25.266,0-36.988,0
		c-0.716,0-2.929,2.562-4.879,1.965l4.794,15.082c7.926-2.182,17.201-1.937,25.373-1.458c9.267,0.543,34.934,6.759,40.853,5.911
		c6.145-0.88,6.812-9.049,3.01-12.796C1669.595,1120.497,1645.89,1115.411,1640.609,1114.923z"/>
	<path style="fill:#383252;" d="M3064.633,2498.831c21.954,19.165,45.782,42.081,42.837,73.974l-46.731-1.956
		C3061.281,2546.181,3062.82,2522.798,3064.633,2498.831z"/>
	<path style="fill:#2B6AB2;" d="M749.985,1858.457c0.568,0.214,1.375-0.21,1.947,0c-21.451,97.98-42.886,196.306-67.514,293.558
		c-1.941,7.663-3.48,15.905-5.904,23.373c-1.541,4.75-0.069,4.932-6.398,4.229c-0.607-0.158-1.34,0.161-1.947,0l74.586-315.774
		L749.985,1858.457z"/>
	<path style="fill:#2B6AB2;" d="M950.497,1891.546l19.467,301.696c-1.87,0.253-3.965-0.242-5.84,0l-19.467-301.696
		C946.603,1891.541,948.551,1891.574,950.497,1891.546z"/>
	<path style="fill:#2B6AB2;" d="M1032.259,1885.707l66.188,280.285c-1.61,0.441-3.478,1.318-5.84,1.947l-66.188-282.231
		C1028.289,1885.456,1030.399,1885.974,1032.259,1885.707z"/>
	<path style="fill:#7BAEE5;" d="M1219.144,1227.816l77.869,218c-1.304,0.698-2.622,1.274-3.893,1.947l-81.762-216.053
		C1214.014,1230.293,1216.563,1229.157,1219.144,1227.816z"/>
	<path style="fill:#CFD6E2;" d="M3401.415,1280.369c7.208-0.706,4.787-0.328,6.109,4.512
		c18.879,69.112,33.067,139.632,48.399,209.595c-0.873,0.28-2.157,1.409-3.893,1.947l-52.561-216.053
		C3400.093,1280.246,3400.789,1280.488,3401.415,1280.369z"/>
	<path style="fill:#7BAEE5;" d="M619.555,1288.155l-64.49,194.434c-1.815,0.647-3.726,0.236-5.592,0.208
		c-0.637-0.009-1.326,0.085-1.947,0l64.242-198.535C614.682,1285.301,617.477,1287.436,619.555,1288.155z"/>
	<path style="fill:#CFD6E2;" d="M2786.252,1216.137l-87.602,179.071c-0.728-0.461-1.257-1.513-1.947-1.946
		c23.216-61.699,52.784-120.957,83.709-179.071C2782.437,1215.067,2784.657,1215.422,2786.252,1216.137z"/>
	<path style="fill:#CFD6E2;" d="M2815.453,1463.333l9.741-81.765l5.824,0.005c-0.578,22.474-5.969,44.809-7.76,67.196
		c-0.171,2.135-1.425,7.259,1.907,6.767c8.058-22.787,14.744-51.669,25.231-73.077c3.491-7.126,8.935-9.536,6.501,0.633
		c-6.935,28.974-24.139,58.199-29.785,88.025c-0.376,0.412-2.971-1.449-3.872-1.945
		C2820.192,1467.495,2817.868,1464.762,2815.453,1463.333z"/>
	<path style="fill:#215EA2;" d="M2794.039,1829.261c-20.007,8.119-42.112,20.59-64.242,15.571
		c11.65-12.332,23.686-24.381,35.041-36.982C2775.364,1813.264,2784.046,1822.837,2794.039,1829.261z"/>
	<path style="fill:#CFD6E2;" d="M3292.399,1547.029c-0.003-0.256-1.964-2.194-2.026-4.712c-0.73-29.679-1.951-59.002-1.858-88.707
		l5.819,4.868l1.978,63.238c2.819,0.389,2.97-5.281,3.321-7.346c0.981-5.776,3.077-41.241,7.366-41.265l3.019,4.863l-7.886,61.276
		C3297.854,1540.615,3291.987,1541.663,3292.399,1547.029z"/>
	<path style="fill:#E8F4FC;" d="M2463.097,2101.76c-6.806-0.238-5.375-1.204-5.845,4.771c-1.717,21.844-0.688,46.111-1.951,68.21
		c-1.367,7.574-8.809,7.068-9.819-1.842c-2.789-24.618,6.708-50.635,0.095-75.032
		C2451.39,2098.876,2457.373,2100.616,2463.097,2101.76z"/>
	<path style="fill:#E9F4FC;" d="M2488.404,2107.599c1.188,7-1.679,13.591-2.027,20.357c-0.74,14.381,2.404,35.749,0.028,48.679
		c-1.106,6.021-5.645,8.302-9.774,3.645l2.04-74.628C2481.906,2106.369,2485.277,2106.875,2488.404,2107.599z"/>
	<path style="fill:#F1F1F1;" d="M709.104,2428.759c2.009,3.365,4.842,6.22,7.77,8.786c7.765,6.808,35.28,26.483,39.044,32.968
		c1.803,3.106,2.389,5.219,1.844,8.843l-8.8-1.888l-49.592-42.869C702.784,2432.754,705.94,2430.386,709.104,2428.759z"/>
	<path style="fill:#F0F0F1;" d="M738.305,2415.134c6.273,15.69,35.342,28.818,42.925,41.749c1.817,3.098,2.367,5.241,1.839,8.848
		c-3.597,0.515-5.759-0.005-8.853-1.835c-10.484-6.201-31.267-28.549-41.721-38.095c-2.407-2.198-3.999-4.876-7.817-4.828
		C729.186,2418.833,733.736,2417.088,738.305,2415.134z"/>
	<path style="fill:#E8F4FC;" d="M2517.605,2115.385c-1.055,0.374-3.638-1.116-3.997,1.09l2.143,63.806l-5.007,2.725
		c-2.775-1.185-4.232-3.456-4.767-6.37c-2.208-12.026,0.764-31.458,0.028-44.786c-0.374-6.773-3.196-13.354-2.027-20.357
		c3.729,0.866,7.177,3.094,11.693,1.94l-0.012-3.887c0.63,1.167,3.836,3.996,3.851,4.879
		C2519.158,2115.683,2518.224,2115.166,2517.605,2115.385z"/>
	<path style="fill:#7BAEE5;" d="M1186.05,1502.261c-1.023,0.397-2.241,2.043-3.893,1.947c-1.023-4.027-6.466-13.639-8.306-19.918
		c-7.396-25.239-17.277-49.89-22.831-75.447c3.83-4.443,9.975,14.086,10.606,15.653
		C1171.661,1449.448,1179.079,1476.367,1186.05,1502.261z"/>
	<path style="fill:#7BAEE5;" d="M707.157,1541.19l17.528-97.336l5.823,0.007c-1.462,19.731-5.015,39.3-8.39,58.761
		c-2.289,13.197-7.19,28.317-9.121,40.514C710.411,1544.036,708.47,1541.565,707.157,1541.19z"/>
	<path style="fill:#E8F3FB;" d="M3294.346,2442.384c-12.971,9.96-25.273,25.287-38.019,34.978c-7.062,5.37-20.14,9.184-12.693-2.961
		c2.758-4.497,23.639-20.19,29.331-25.172c4.397-3.849,11.776-9.195,13.594-14.631
		C3289.113,2436.645,3291.427,2439.962,3294.346,2442.384z"/>
	<path style="fill:#E8F3FB;" d="M3315.76,2459.902c-4.409-0.722-5.947,1.415-8.832,3.818c-9.892,8.242-24.783,26.12-34.091,32.09
		c-5.376,3.448-12.508,5.352-10.659-3.025c0.758-3.434,34.227-31.99,40.164-37.61c2.188-2.071,5.835,0.571,1.738-5.005
		C3307.882,2453.469,3311.996,2456.52,3315.76,2459.902z"/>
	<path style="fill:#EFEFF0;" d="M1575.394,2127.064l4.064,53.543c-0.181,7.559-6.591,10.626-9.802,1.828
		c-3.371-9.236-1.526-50.903-3.987-53.435c-4.499,0.226-9.149-0.319-13.635,0.01
		C1558.223,2125.811,1567.523,2127.482,1575.394,2127.064z"/>
	<path style="fill:#E8F3FB;" d="M3278.772,2428.759c-4.621-0.946-5.934,1.817-8.784,3.864c-10.242,7.358-27.11,24.76-36.822,29.365
		c-3.081,1.461-5.323,2.434-8.893,1.796c-0.59-4.304,0.072-6.528,2.758-9.875c9.233-11.5,33.766-20.047,40.06-34.883
		C3270.352,2421.427,3274.829,2425.665,3278.772,2428.759z"/>
	<path style="fill:#F0F0F0;" d="M1524.779,2130.956c-3.465,8.601-3.024,53.928-8.776,56.432c-0.836,0.364-4.937,0.756-4.972-1.123
		c-4.462-6.112,3.197-43.581,4.005-53.351c-1.067-0.996-24.261,0.646-29.192-0.011c9.869-5.383,24.354-0.229,34.197-0.313
		C1522.337,2132.571,1524.11,2130.975,1524.779,2130.956z"/>
	<path style="fill:#F0F0F0;" d="M742.198,2413.188c3.43-1.354,11.121-5.179,13.627-5.839c7.062,11.484,34.459,22.356,39.949,33.056
		c2.873,5.6-4.02,6.984-8.745,4.849C774.536,2439.611,757.643,2417.499,742.198,2413.188z"/>
	<path style="fill:#F0F0F1;" d="M1540.353,2130.956c4.119-0.247,7.472-1.778,9.734-1.946c-4.482,17.445,0.136,36.069-1.852,53.622
		c-1.009,8.909-8.451,9.417-9.819,1.842C1535.492,2168.286,1541.167,2147.477,1540.353,2130.956z"/>
	<path style="fill:#0B3A68;" d="M2794.039,1829.261c0.927,0.596,2.515,1.116,3.894,1.946c-8.222,9.89-24.934,15.31-37.328,18.15
		c-10.177,2.332-26.082,7.145-34.7-0.633c1.244-1.306,2.597-2.521,3.893-3.893
		C2751.927,1849.851,2774.032,1837.38,2794.039,1829.261z"/>
	<path style="fill:#E9F4FC;" d="M2496.191,2109.546l-5.84-1.946C2493.089,2108.202,2495.098,2109.301,2496.191,2109.546z"/>
	<path style="fill:#E8F3FF;" d="M2766.785,1790.332l1.947-3.893C2768.272,1789.094,2766.827,1790.119,2766.785,1790.332z"/>
	<path style="fill:#E8F3FF;" d="M2961.457,1297.887l-1.947-1.946C2960.346,1296.316,2960.93,1297.656,2961.457,1297.887z"/>
	<path style="fill:#9C413D;" d="M2926.416,1048.745c22.937,67.667,99.832,95.364,166.526,91.563
		c16.54-0.943,56.959-7.881,70.974-15.653c4.001,0.246,7.177-2.039,5.02,4.035c-11.477,32.313-38.862,60.645-69.261,75.768
		c-38.287-51.424-106.474-64.671-163.524-36.982c-18.991-27.348-24.637-56.701-20.875-89.97c0.676-5.975,4.021-21.374,6.665-26.349
		C2923.804,1047.649,2924.003,1049.333,2926.416,1048.745z"/>
	<path style="fill:#EE9C86;" d="M2834.41,967.458c110.869-18.696,86.628,155.163-10.571,112.804
		C2772.519,1057.897,2782.677,976.182,2834.41,967.458z"/>
	<path style="fill:#EE9C86;" d="M3260.785,1072.608c90.536-13.188,94.53,133.271-3.93,117.755
		C3195.871,1180.753,3195.618,1082.101,3260.785,1072.608z"/>
	<path style="fill:#FFFFFF;" d="M2926.416,1048.745c0.4-0.098,1.653-1.957,3.287-0.68l238.097,73.681
		c0.261,0.516-2.944,2.389-3.885,2.91c-14.014,7.772-54.434,14.71-70.974,15.653
		C3026.248,1144.109,2949.353,1116.411,2926.416,1048.745z"/>
	<path style="fill:#EC8B86;" d="M3099.674,1204.458c-57.298,28.505-126.276,16.656-163.524-36.982
		C2993.2,1139.788,3061.387,1153.034,3099.674,1204.458z"/>
	<path style="fill:#1B110C;" d="M3335.227,896.924l-122.797-47.679c22.266-46.973,91.337-51.629,115.358-2.302
		c1.338,2.747,7.44,20.071,7.44,21.758V896.924z"/>
	<path style="fill:#1B110C;" d="M2927.95,726.162c36.779-3.36,66.758,30.285,67.738,65.748c-2.104,2.929-10.22,1.98-13.771,1.83
		c-27.236-1.147-71.787-7.13-99.117-11.841c-3.496-0.603-7.167-1.394-10.038-3.623c-4.287-6.281,11.589-29.335,16.591-34.221
		C2898.501,735.117,2915.221,727.325,2927.95,726.162z"/>
	<path d="M2924.064,860.365c39.374-3.87,45.592,58.099,9.523,73.899C2883.187,956.342,2875.648,865.123,2924.064,860.365z"/>
	<path d="M3239.432,940.168c39.373-3.87,45.592,58.099,9.523,73.899C3198.555,1036.146,3191.016,944.926,3239.432,940.168z"/>
	<path style="fill:#E19E7C;" d="M2768.732,1023.441c2.716-24.713,9.791-48.41,13.658-72.887
		c-5.944-13.427-20.277-16.66-33.114-10.817c1.629-17.051,25.7-7.843,35.01,0.008c2.026-14.747-12.007-44.29-28.257-44.911
		c-3.092-0.118-18.967,7.273-16.48,1.144c12.533-14.21,31.568-5.358,40.524,8.097l10.048,20.084
		c6.537-20.125,9.94-43.94,17.263-63.526c3.889-10.401,8.895-7.512,7.234,1.317c-3.344,17.773-11.808,39.242-16.533,57.51
		c-9.023,34.888-16.714,70.358-25.402,105.117C2771.143,1025.82,2769.366,1023.449,2768.732,1023.441z"/>
	<path style="fill:#E19E7C;" d="M3008.17,1023.43c26.593,6.04,56.971,9.614,82.867,17.406c10.473,3.151,8.334,8.202-1.16,7.096
		c-29.148-3.393-61.955-16.016-91.427-20.618c-0.46-2.202,0.245-3.773,1.035-5.739c7.986-19.885,26.517-49.66,37.56-69.513
		c9.882-17.765,21.407-40.749,32.41-57.13c1.389-2.068,2.269-6.483,5.857-5.784l1.425,7.205
		c-17.238,31.804-36.294,62.727-53.319,94.637C3021.178,995.186,3006.838,1022.036,3008.17,1023.43z"/>
	<path style="fill:#E19E7C;" d="M3485.114,1105.181c-7.159,0.76-9.288-5.941-15.55-8.764c-14.34-6.465-28.958-1.004-40.727,7.968
		c-1.979,1.508-14.188,12.326-11.839,14.42c13.08-0.607,28.9-1.387,35.023,12.632c-3.446,5.47-8.626-2.562-13.157-4.325
		c-6.893-2.682-11.118-3.043-18.486-1.987c-20.276,2.904-16.273,28.716-15.08,44.288c-4.929,0.83-6.53-5.089-7.299-9.211
		c-4.855-26.034,19.502-66.21,46.133-71.669C3458.535,1085.581,3482.691,1087.145,3485.114,1105.181z"/>
	<path style="fill:#C89F88;" d="M3282.665,715.906l-1.947,5.839c-0.457-2.815-3.801-7.092-1.927-11.669l1.902,0.006
		C3280.947,711.933,3281.634,714.401,3282.665,715.906z"/>
	<path style="fill:#F8C7AC;" d="M1197.73,869.674c12.636,50.181,22.647,102.954,36.679,153.045c1.32,4.713,4.396,1.48,4.202,14.347
		c-0.406,26.874-13.598,66.511-24.398,91.418c-35.691,82.3-101.421,143.406-183.9,177.189
		c-64.438,26.394-121.309,33.99-190.778,25.303c-80.24-10.034-157.042-45.065-215.112-101.182
		c-60.117,62.415-135.678-5.598-141.107-75c-5.452-69.695,40.689-104.082,101.178-63.23c15.524-79.23,27.261-160.286,24.311-241.287
		c46.973-49.57,91.385-101.713,130.542-157.728c13.962,11.43,26.515,23.998,41.174,34.675
		c57.278,41.722,132.002,70.938,203.062,74.314l-52.887-82.377c-2.451-8.012-11.103-18.436-13.262-25.678
		c-0.811-2.719,0.185-3.462,2.852-2.852c78.07,38.154,164.448,62.576,250.197,76.85l3.398,4.388
		C1180.334,804.845,1189.543,837.162,1197.73,869.674z M1119.87,834.626c-26.144-79.444-125.567-60.256-126.552,21.43
		L1119.87,834.626z M802.549,877.426c-46.818-69.612-140.189-29.327-126.528,52.577L802.549,877.426z M1082.342,897.375
		c-36.746,7.628-29.998,82.497,12.319,78.479C1140.324,971.518,1132.222,887.021,1082.342,897.375z M909.626,1068.199l87.532-30.285
		L930.03,908.618c-4.887-2.382-2.594,8.104-2.006,9.804l59.4,115.598l-76.65,28.18L909.626,1068.199z M769.002,959.716
		c-42.154,5.856-35.287,85,10.973,79.142C821.067,1033.654,814.494,953.396,769.002,959.716z M1140.771,1004.443
		c-68.167,10.762-57.767,122.514,18.791,114.147C1232.776,1110.589,1223.079,991.449,1140.771,1004.443z M833.694,1132.441
		l-4.016,1.111c13.667,37.554,35.052,69.238,72.151,86.478c56.936,26.458,111.912,0.269,140.164-52.553
		c8.993-16.814,14.686-34.849,17.271-53.776c1.656-12.125,3.991-39.444-1.698-49.385c-1.115-1.949-1.562-3.923-4.472-3.554
		l-220.32,67.716L833.694,1132.441z M724.213,1117.376c-69.159,10.138-58.472,121.864,16.81,114.114
		C815.831,1223.789,805.386,1105.477,724.213,1117.376z M613.705,1186.931c4.533-4.555-19.983-29.465-24.273-33.13
		c-14.64-12.505-31.443-21.843-51.696-16.553c-11.948,3.121-26.054,22.638-16.49,34.082c4.261-3.904,2.577-9.579,4.408-15.017
		c4.621-13.727,20.673-15.959,33.2-12.803c3.624,0.913,27.449,12.07,23.711,16.167c-8.003,0.417-15.36,5.819-21.435,10.697
		c-1.766,1.419-20.513,18.868-10.684,18.475c2.28-0.091,22.027-25.018,37.415-24.83
		C596.395,1164.122,608.224,1192.439,613.705,1186.931z"/>
	<path style="fill:#E8F3FF;" d="M1059.513,1313.458c10.463,11.317,28.437,56.494,31.766,72.373
		c7.336,34.991,3.91,79.502-25.903,103.802c-43.818,35.715-95.916-2.742-117.798-43.782c-18.768,24.695-40.641,52.365-72.611,59.724
		c-91.061,20.96-91.029-111.819-68.528-166.812c0.256-0.003,2.201-2.004,4.711-2.026c10.756-0.095,21.541,0.227,32.276,0.08
		c1.523,5.918,1.007,10.811,1.947,15.571c21.298,107.846,194.211,95.566,186.885-23.357c-0.234-3.797,0.451-8.042,0-11.679
		c6.743-1.735,19.047-10.303,25.343-6.873C1058.809,1311.064,1058.923,1312.82,1059.513,1313.458z"/>
	<path style="fill:#F8C7AC;" d="M1242.505,1025.387l-15.538-68.917c0.891-7.38,10.144-13.46,16.117-17.112
		c2.304-1.409,16.506-3.808,11.092-9.336c-5.196-5.305-23.024,12.18-26.297,13.599c-6.493,2.814,0.296-12.413,1.312-14.27
		c1.184-2.164,6.643-9.439,8.375-11.091c4.299-4.101,19.355-8.756,18.557-12.55c-0.827-3.928-4.949-2.204-7.364-1.6
		c-13.654,3.414-20.531,18.585-29.594,27.847c-4.26-20.729-8.81-43.933-19.487-62.285c36.515-45.469,71.736-11.352,83.146,32.679
		C1293.456,943.38,1290.774,1010.602,1242.505,1025.387z"/>
	<path style="fill:#E19D7B;" d="M1032.259,1317.351c0.451,3.637-0.234,7.882,0,11.679c0.75,5.93-4.04,9.133-7.772,12.667
		c-25.01,23.683-70.755,32.357-104.139,30.129c-26.124-1.743-50.594-10.987-74.974-19.439c-0.94-4.761-0.424-9.654-1.947-15.571
		c-0.753-2.928-0.048-4.139-3.893-5.839c69.469,8.687,126.34,1.09,190.778-25.303
		C1028.425,1310.044,1031.951,1314.864,1032.259,1317.351z"/>
	<path style="fill:#E19E7C;" d="M1199.677,869.674c10.677,18.351,15.227,41.556,19.487,62.285
		c9.064-9.262,15.941-24.433,29.594-27.847c2.414-0.604,6.537-2.329,7.364,1.6c0.798,3.794-14.258,8.448-18.557,12.55
		c-1.731,1.652-7.191,8.928-8.375,11.091c-1.016,1.857-7.804,17.084-1.312,14.27c3.273-1.419,21.101-18.904,26.297-13.599
		c5.414,5.528-8.787,7.927-11.092,9.336c-5.973,3.651-15.226,9.732-16.117,17.112l15.538,68.917l-3.893,11.679
		c0.194-12.867-2.882-9.634-4.202-14.347c-14.032-50.091-24.042-102.864-36.679-153.045H1199.677z"/>
	<path style="fill:#664329;" d="M1082.869,671.162c0.511,3.202-1.086,5.408-4.443,5.471c-7.206,0.135-51.73-16.679-61.105-20.727
		c-13.188-5.695-29.942-14.389-41.772-22.466c-2.265-1.546-22.659-15.587-19.202-18.737c10.225,1.68,18.373,10.93,27.409,16.37
		C1014.779,649.754,1048.363,660.661,1082.869,671.162z"/>
	<path style="fill:#664329;" d="M1012.782,686.7c-2.749,2.817-56.569-26.938-63.299-31.092
		c-12.812-7.906-31.124-19.966-41.841-30.183c-2.246-2.142-12.762-11.168-9.695-14.616l52.716,37.781
		c11.575,6.553,23.128,13.369,34.834,19.671c5.206,2.803,23.12,9.539,25.346,11.639
		C1013.278,682.198,1013.056,683.58,1012.782,686.7z"/>
	<path style="fill:#664329;" d="M642.905,706.183c0.464,3.394-0.242,6.068-1.51,9.177c-8.141,19.968-48.36,66.739-64.619,83.317
		c-3.802,3.877-7.561,9.609-13.666,8.7L642.905,706.183z"/>
	<path style="fill:#664329;" d="M1370.978,1015.646c-3.9,0.789-4.556-1.862-6.232-4.454c-7.106-10.989-12.925-31.067-19.996-44.239
		c-4.001-7.454-9.23-16.005-13.833-23.151c-5.026-7.803-15.89-18.692-19.326-25.457c-1.347-2.652-0.164-5.377,1.999-5.84
		c2.65-0.567,19.322,22.718,21.997,26.628c5.448,7.963,11.717,18.08,16.269,26.555
		C1355.502,972.481,1374.575,1011.39,1370.978,1015.646z"/>
	<path style="fill:#664329;" d="M625.405,774.289l63.258-101.165c4.344,2.935,2.423,4.973,1.028,8.769
		c-6.879,18.709-42.678,75.202-56.808,89.188C630.293,773.644,630.292,775.275,625.405,774.289z"/>
	<path style="fill:#664329;" d="M812.291,673.094l85.635,67.113c-0.96,5.297-11.001-1.456-12.983-2.553
		c-13.285-7.353-30.602-19.897-42.43-29.593C838.127,704.466,807.361,678.505,812.291,673.094z"/>
	<path style="fill:#664329;" d="M720.774,659.45l-89.5-49.624c2.996-4.127,3.486-2.652,7.175-1.393
		c14.009,4.782,69.286,34.041,79.143,43.512C720.311,654.557,721.663,654.709,720.774,659.45z"/>
	<path style="fill:#664329;" d="M1328.171,974.79c2.359-2.295,5.78,1.396,7.504,3.183c8.835,9.156,33.15,63.384,34.904,76.095
		c0.532,3.856,1.204,5.715-2.511,8.263L1328.171,974.79z"/>
	<path style="fill:#664329;" d="M833.684,725.628c-3.296,3.387-39.296-23.497-43.739-27.292
		c-6.269-5.356-20.949-19.043-25.447-25.163c-1.96-2.666-3.666-3.933-2.822-7.864c3.665-0.844,4.612,2.073,6.807,3.88
		c9.145,7.53,17.563,17.481,27.304,25.253c9.757,7.784,27.318,16.576,34.716,23.682
		C832.299,719.849,835.976,723.273,833.684,725.628z"/>
	<path style="fill:#674429;" d="M370.375,1204.458c-1.826-0.716-3.865-1.172-5.84-1.946c2.695-20.459,7.563-41.782,16.493-60.386
		c1.216-2.533,4.758-12.823,7.811-11.612c4.065,1.612,2.438,4.296,1.449,7.191c-3.774,11.046-9.689,21.44-13.09,33.674
		C374.169,1182.277,372.792,1193.459,370.375,1204.458z"/>
	<path style="fill:#664329;" d="M1137.373,715.896c-3.625,3.003-59.825-13.632-67.27-17.389c-2.803-1.414-5.531-1.809-4.739-5.947
		l67.291,17.369L1137.373,715.896z"/>
	<path style="fill:#674329;" d="M510.548,871.609c-0.702-3.512,1.73-4.843,4.005-6.681c12.314-9.943,31.051-17.38,42.693-29.342
		c1.763-2.459,5.557,0.624,5.843,2c0.765,3.685-24.726,20.299-29.355,23.164C529.964,863.085,513.739,874.415,510.548,871.609z"/>
	<path style="fill:#674329;" d="M594.238,850.22c0.864,4.019-2.046,4.418-4.417,6.27c-4.539,3.545-41.648,25.491-44.232,22.906
		c-0.61-4.391-0.087-5.021,3.174-7.512c3.007-2.296,32.521-18.657,36.295-20.154C588.177,850.493,590.832,849.735,594.238,850.22z"
		/>
	<path style="fill:#674329;" d="M625.385,686.72c2.578,2.517-20.079,35.002-23.324,37.971c-2.657,2.431-3.798,3.595-7.804,2.883
		c-0.645-3.277,1.631-5.145,3.115-7.572c3.547-5.801,16.779-26.237,20.51-30.1C619.604,688.12,623.031,684.42,625.385,686.72z"/>
	<path style="fill:#674429;" d="M424.873,1163.593l-5.837,48.666l-5.823-0.007c-1.59-1.528,4.599-39.798,5.934-43.699
		C420.232,1165.382,420.579,1162.878,424.873,1163.593z"/>
	<path style="fill:#674429;" d="M874.565,696.432c-3.337,3.337-26.226-20.053-26.945-22.704c-0.934-3.444,0.115-4.427,2.621-6.443
		C853.141,671.501,878.884,692.114,874.565,696.432z"/>
	<path style="fill:#68442A;" d="M385.949,1210.298c0.099-8.344,0.976-20.544,3.908-28.209c1.153-3.015,1.666-5.614,5.815-4.871
		l-3.883,35.026C390.186,1211.614,388.16,1211.167,385.949,1210.298z"/>
	<path style="fill:#674429;" d="M1343.745,1052.647c5.156-5.944,9.071,24.352,9.21,26.832c0.206,3.664,1.664,5.489-2.407,8.155
		C1346.123,1087.497,1342.791,1057.786,1343.745,1052.647z"/>
	<path style="fill:#0A3866;" d="M3290.452,1854.564l-33.094,558.624c-2.188-0.205-4.163,1.562-5.84,1.946l27.374-452.664
		c0.051-1.702-0.206-3.261-1.103-4.737c-1.155-1.901-16.604-14.027-20.481-18.45c-14.55-16.594-25.875-38.632-33.044-59.416
		c0.612-0.15,1.338,0.156,1.947,0c5.988-0.9,4.712-0.101,6.791,3.844c4.354,8.261,7.445,18.119,12.343,26.659
		c2.322,4.049,29.943,45.756,35.364,39.558l5.85-93.419C3287.821,1855.85,3289.316,1855.213,3290.452,1854.564z"/>
	<path style="fill:#0A3966;" d="M2988.711,1887.653l-7.777,75.901c26.769-10.747,35.287-46.078,38.924-72.008h5.84
		c-0.966,23.821-10.278,53.615-28.177,70.121c-3.744,3.453-16.838,10.364-17.575,11.624c-2.213,3.784,0.936,12.369-6.799,11.673
		l9.723-97.311C2984.747,1887.895,2986.828,1887.423,2988.711,1887.653z"/>
	<path style="fill:#2B6AB2;" d="M816.174,2201.028l31.154-315.336l5.826,0.004c-7.977,105.223-19.62,210.41-31.139,315.332
		C820.07,2200.974,818.117,2201.093,816.174,2201.028z"/>
	<path style="fill:#2B6AB2;" d="M1119.862,1866.243l122.643,247.196c-1.394,0.638-3.259,2.741-5.84,3.893
		c-37.762-73.999-76.166-148.234-109.359-224.469c-3.717-8.537-8.17-17.218-9.391-26.62
		C1118.512,1866.068,1119.266,1866.421,1119.862,1866.243z"/>
	<path style="fill:#2B6AB2;" d="M1191.89,1838.993l157.684,217.999c-1.206,0.77-2.679,1.184-3.893,1.947
		c-5.788-4.017-10.104-10.296-14.399-15.773c-42.045-53.623-83.8-111.479-122.303-167.733
		c-7.401-10.814-16.201-22.443-20.983-34.494C1189.155,1840.446,1190.455,1839.622,1191.89,1838.993z"/>
	<path style="fill:#205DA2;" d="M3286.559,1856.511l-5.85,93.419c-5.421,6.198-33.042-35.51-35.364-39.558
		c-4.898-8.54-7.989-18.398-12.343-26.659c-2.079-3.945-0.803-4.744-6.791-3.844
		C3245.083,1875.04,3269.274,1865.559,3286.559,1856.511z"/>
	<path style="fill:#205DA2;" d="M3019.858,1891.546c-3.637,25.93-12.156,61.261-38.924,72.008l7.777-75.901
		C2999.03,1888.915,3009.79,1888.753,3019.858,1891.546z"/>
	<path style="fill:#2A73C5;" d="M1187.997,1840.939c4.782,12.051,13.581,23.68,20.983,34.494
		c38.503,56.253,80.258,114.11,122.303,167.733c4.295,5.477,8.61,11.756,14.399,15.773c-34.109,21.421-66.947,37.902-103.176,54.5
		l-122.643-247.196C1142.102,1859.603,1166.594,1850.062,1187.997,1840.939z"/>
	<path style="fill:#F8C7AC;" d="M3161.969,1332.922c0.064,3.769,1.264,18.331,0.833,19.531
		c-30.991,86.159-180.22,107.229-195.299,0.688l3.688-31.897c0.102,2.757-0.499,5.552,0.403,8.28
		c2.105,6.368,25.062,19.477,31.997,22.584C3059.012,1376.933,3114.575,1370.762,3161.969,1332.922z"/>
	<path style="fill:#F8C7AB;" d="M2416.366,1095.469l-9.062,17.196c-32.247-0.119-63.26-0.341-94.094,10.034
		c-0.575-3.038,0.309-4.502,1.847-6.893C2328.73,1094.556,2393.107,1095.512,2416.366,1095.469z"/>
	<path style="fill:#F8C7AC;" d="M226.327,1251.177c-21.95,2.139-45.543,5.738-66.615,12.229
		c-6.725,2.071-27.854,12.589-30.097,12.79c-7.891,0.709-2.867-10.653-0.347-14.035c15.694-21.061,70.781-25.15,95.085-30.468
		L226.327,1251.177z"/>
	<path style="fill:#F8C7AC;" d="M3876.404,1266.735l-90.223-25.583l-2.839-3.001l-2.307-16.164
		c1.671-1.616,33.608,7.238,38.922,8.751C3837.527,1235.739,3880.096,1243.808,3876.404,1266.735z"/>
	<path style="fill:#F8C7AC;" d="M1640.609,1114.923c5.282,0.488,28.986,5.574,32.163,8.705c3.802,3.747,3.135,11.916-3.01,12.796
		c-5.919,0.848-31.586-5.369-40.853-5.911c-8.172-0.479-17.447-0.724-25.373,1.458l-4.794-15.082
		c1.95,0.597,4.163-1.965,4.879-1.965C1615.343,1114.923,1629.266,1113.875,1640.609,1114.923z"/>
	<path style="fill:#EE9C86;" d="M1140.771,1004.443c82.309-12.995,92.006,106.145,18.791,114.147
		C1083.004,1126.957,1072.604,1015.205,1140.771,1004.443z"/>
	<path style="fill:#EE9C86;" d="M724.213,1117.376c81.173-11.899,91.618,106.412,16.81,114.114
		C665.741,1239.24,655.054,1127.515,724.213,1117.376z"/>
	<path style="fill:#9C413D;" d="M1041.993,1167.476c-51.405-28.073-119.159-1.033-140.164,52.553
		c-37.1-17.24-58.484-48.924-72.151-86.478l4.016-1.111c77.477,45.263,184.347,11.52,223.873-68.125
		c5.689,9.941,3.354,37.259,1.698,49.385C1056.679,1132.628,1050.985,1150.663,1041.993,1167.476z"/>
	<path style="fill:#FFFFFF;" d="M1057.567,1064.316c-39.525,79.645-146.396,113.388-223.873,68.125l-0.92-3.963l220.32-67.716
		C1056.004,1060.393,1056.452,1062.367,1057.567,1064.316z"/>
	<path style="fill:#EC8B86;" d="M1041.993,1167.476c-28.251,52.823-83.227,79.011-140.164,52.553
		C922.834,1166.443,990.588,1139.403,1041.993,1167.476z"/>
	<path style="fill:#614129;" d="M802.549,877.426L676.02,930.003C662.359,848.099,755.73,807.814,802.549,877.426z"/>
	<path style="fill:#614129;" d="M1119.87,834.626l-126.552,21.43C994.304,774.37,1093.726,755.182,1119.87,834.626z"/>
	<path d="M769.002,959.716c45.492-6.32,52.065,73.938,10.973,79.142C733.715,1044.716,726.848,965.572,769.002,959.716z"/>
	<path d="M1082.342,897.375c49.879-10.355,57.981,74.143,12.319,78.479C1052.344,979.872,1045.596,905.003,1082.342,897.375z"/>
	<path style="fill:#E19E7C;" d="M909.626,1068.199l1.148-5.999l76.65-28.18l-59.4-115.598c-0.588-1.7-2.88-12.186,2.006-9.804
		l67.128,129.295L909.626,1068.199z"/>
	<path style="fill:#E29E7C;" d="M613.705,1186.931c-5.481,5.508-17.31-22.808-25.843-22.913
		c-15.388-0.188-35.135,24.739-37.415,24.83c-9.829,0.394,8.918-17.056,10.684-18.475c6.075-4.878,13.432-10.281,21.435-10.697
		c3.738-4.096-20.087-15.254-23.711-16.167c-12.527-3.156-28.579-0.924-33.2,12.803c-1.831,5.438-0.148,11.113-4.408,15.017
		c-9.564-11.444,4.542-30.961,16.49-34.082c20.253-5.291,37.056,4.047,51.696,16.553
		C593.722,1157.465,618.238,1182.376,613.705,1186.931z"/>
	<path style="fill:#F8C7AC;" d="M845.374,1352.387c24.379,8.452,48.849,17.696,74.974,19.439
		c33.385,2.228,79.129-6.446,104.139-30.129c3.732-3.534,8.522-6.737,7.772-12.667
		C1039.586,1447.953,866.672,1460.233,845.374,1352.387z"/>
</g>
<rect style="fill:none;" width="4000" height="3000"/>
</svg>
