<?xml version="1.0" encoding="utf-8"?>
<!-- Generator: Adobe Illustrator 27.5.0, SVG Export Plug-In . SVG Version: 6.00 Build 0)  -->
<svg version="1.1" xmlns="http://www.w3.org/2000/svg" xmlns:xlink="http://www.w3.org/1999/xlink" x="0px" y="0px"
	 viewBox="0 0 2500 2500" style="enable-background:new 0 0 2500 2500;" xml:space="preserve">
<g id="Background">
	<rect style="fill:#F7F1EA;" width="2500" height="2500"/>
</g>
<g id="Object">
	<circle style="fill:#EFE1D3;" cx="1250" cy="1250" r="934.98"/>
	<g>
		<path style="fill:#6D3616;" d="M1470.192,2100.248c20.852,66.483,49.816,130.418,86.045,189.935
			c18.438,30.291,44.275,62.599,79.732,63.168c22.87,0.368,44.233-13.568,57.737-32.028c15.903-21.737,22.369-49.269,22.672-76.2
			c0.304-26.932-5.15-53.573-11.154-79.828c-8.661-37.884-18.744-76.042-38.302-109.625c-19.557-33.582-49.872-62.528-87.342-71.401
			C1548.09,2025.271,1511.425,2062.294,1470.192,2100.248z"/>
		<path style="fill:#6D3616;" d="M1023.487,1626.207c9.305-19.639,29.081-32.965,48.355-43.854
			c19.275-10.889,44.296-15.115,64.241-5.363c23.86,11.667,33.559,38.768,39.295,63.563c21.565,93.22,17.662,191.593-11.229,283.026
			c-5.951,18.837-16.036,40.123-36.36,44.341c-20.797,4.317-39.705-11.866-52.849-27.691
			C1006.721,1858.098,988.89,1699.229,1023.487,1626.207z"/>
		<path style="fill:#FAB395;" d="M1099.742,1603.265c0,0,64.441,156.28,112.532,226.562
			c48.091,70.282,280.294,311.006,280.294,311.006s149.149,27.013,116.023-140.59c0,0-164.281-230.669-183.47-264.944
			c-19.189-34.274-35.964-144.408-35.964-144.408L1099.742,1603.265z"/>
		<path style="fill:#FAB395;" d="M1486.528,857.432c0,0,40.271-2.905,66.268-10.585c25.997-7.68,300.887-138.484,300.887-138.484
			l72.389,121.487c0,0-185.188,157.839-263.748,190.731c-78.503,32.866-161.773,52.246-161.773,52.246L1486.528,857.432z"/>
		<path style="fill:#FAB395;" d="M744.31,1398.929c0,0-163.573,47.766-180.302,151.724
			c-16.729,103.957,54.826,189.348,144.651,203.883c89.824,14.535,309.898,15.54,309.898,15.54s57.201-81.045,21.94-161.805
			l-107.87-41.136L744.31,1398.929z"/>
		<path style="fill:#FAB395;" d="M673.135,717.237c0,0,127.566,201.611,160.313,208.461l32.275,183.064
			c0,0-129.633,27.25-180.419-7.407c-56.762-38.734-140.208-298.935-140.208-298.935L673.135,717.237z"/>
		<path style="fill:#FFD469;" d="M919.948,1315.451c-72.138,17.179-141.617,45.475-208.315,87.203
			c40.985,80.331,96.056,153.45,175.827,221.948c61.12-12.423,121.461-28.675,188.247-48.892
			c12.671,40.355,28.649,79.672,57.307,125.563c106.745,23.5,223.694-4.941,307.411-83.171
			c-13.992-93.84-39.228-185.998-74.999-273.874L919.948,1315.451z"/>
		<path style="fill:#768FC9;" d="M1523.732,1084.79c0,0-108.373,38.373-134.834,43.223l-0.843,12.967l-3.901,62.937l-3.057,48.283
			l-3.901,62.937l-2.952,46.913c0,0-204.801,85.466-482.092-34.367l7.696-50.075l8.855-57.771l6.747-44.172l2.319-15.391
			l-1.265,0.211l-51.973,9.593c0,0-85.391-152.65-37.003-273.779c0,0,222.123-55.135,329.336-60.196
			c105.738-4.849,157.921,8.223,202.62,8.223c44.699,0,148.644-5.482,148.644-5.482S1542.707,974.73,1523.732,1084.79z"/>
		<path style="fill:#F3AB8A;" d="M975.565,417.246c-38.896,106.38-91.701,247.701-51.131,332.344
			c39.557,82.53,140.763,94.894,181.219,99.848c-0.341,9.479-47.135,113.033,35.733,134.277
			c27.708,7.103,90.709-3.361,128.679-91.619c0,0,8.597-41.287,10.366-49.926c74.354-18.977,153.068-128.518,195.22-216.946
			c40.898-85.796,20.984-170.654-39.041-244.348c-60.025-73.694-154.585-116.651-249.617-118.29L975.565,417.246z"/>
		<g>
			<path style="fill:#44150F;" d="M1253.232,657.821c5.17-16.685,19.505-27.066,32.017-23.189
				c12.514,3.877,18.466,20.547,13.296,37.231c-5.171,16.684-19.506,27.066-32.019,23.188
				C1254.013,691.173,1248.061,674.505,1253.232,657.821z"/>
			<path style="fill:#44150F;" d="M1002.443,611.797c2.02-17.35,14.205-30.187,27.217-28.673
				c13.012,1.514,21.924,16.806,19.905,34.157c-2.019,17.349-14.204,30.186-27.217,28.672
				C1009.335,644.439,1000.424,629.146,1002.443,611.797z"/>
			<g>
				<path style="fill:#822924;" d="M1205.298,729.817c-2.818,14.335-8.733,27.681-17.692,38.697
					c-19.439,23.65-53.214,33.967-80.589,21.695c-11.805-5.208-21.753-14.157-29.658-24.852
					c-4.797-6.704-8.876-13.992-12.023-21.648c-8.166-20.132-10.922-42.141-11.978-63.883c50.165,4.273,100.298,4.99,149.736-1.267
					C1207.971,695.483,1208.666,713.349,1205.298,729.817z"/>
				<path style="fill:#C4352F;" d="M1205.298,729.817c-2.818,14.335-8.733,27.681-17.692,38.697
					c-19.439,23.65-53.214,33.967-80.589,21.695c-11.805-5.208-21.753-14.157-29.658-24.852
					c14.599-17.906,34.329-31.343,56.011-37.965C1156.83,720.366,1182.287,721.266,1205.298,729.817z"/>
			</g>
			<path style="fill:#E87C65;" d="M1128.324,655.331c-3.649-8.001-4.686-17.455-2.862-26.112c1.823-8.656,6.489-16.444,13.2-22.24
				c-6.024,0.896-12.06,2.264-17.521,5.21c-5.461,2.944-10.347,7.603-12.955,13.795c-2.608,6.194-2.645,14.007,0.725,19.841
				C1112.76,652.488,1119.948,655.371,1128.324,655.331z"/>
			<path style="fill:#944830;" d="M1266.045,555.214c15.025-5.264,31.909-5.027,46.781,0.657
				c14.871,5.683,27.611,16.767,35.295,30.71c5.048-20.328-6.788-43.477-26.223-51.286
				C1302.464,527.486,1277.901,536.008,1266.045,555.214z"/>
			<path style="fill:#944830;" d="M984.239,526.158c9.852-14.062,25.826-23.669,42.865-25.781
				c17.04-2.112,34.877,3.307,47.862,14.541c-4.894-13.456-14.328-25.215-26.402-32.909c-8.954-5.707-19.713-9.229-30.218-7.679
				c-11.03,1.627-20.787,8.795-27.033,18.03C985.066,501.596,982.071,512.729,984.239,526.158z"/>
		</g>
		<g>
			<path style="fill:#AD5D47;" d="M1592.255,426.644c20.979,48.599,24.774,104.262,11.28,155.286
				c-2.53,10.226-5.904,20.135-9.91,29.834c-0.738,1.687-1.37,3.374-2.214,4.955c-24.879,56.401-72.53,102.364-128.192,129.141
				c-9.172-3.69-18.449-7.38-34.262-14.654c-15.602-41.009-16.867-87.289-6.325-129.563c-36.476-28.991-51.34-82.229-34.051-127.56
				c-36.897,24.879-81.807,37.741-126.295,36.054c-44.382-1.687-88.238-17.922-123.027-45.542
				c29.94-6.431,59.352-15.392,86.024-28.885c-62.831-27.515-138.629-22.982-197.771,11.702
				c2.846-19.819,8.855-39.217,20.874-59.247c-25.934,13.81-50.497,29.94-69.051,43.961c-19.503,34.367-36.159,73.162-46.28,109.533
				c-33.629-33.946-42.907-85.918-30.151-131.988c-7.59,11.491-15.286,23.087-22.876,34.578
				c-13.705-50.708,1.897-105,32.786-148.328c5.904-8.328,12.229-16.129,19.081-23.404c3.69-3.901,7.379-7.696,11.28-11.28
				c49.759-46.069,115.436-70.949,180.692-89.292c51.656-14.443,104.683-25.512,158.237-25.301
				c53.659,0.316,108.057,12.545,153.072,41.747c44.91,29.096,79.382,76.43,86.34,129.563c15.919-23.72,22.56-53.449,30.045-81.912
				c37.319,30.888,44.277,92.244,14.865,130.723c39.217-10.331,84.232,16.446,93.93,55.768
				C1637.797,418.211,1614.078,419.581,1592.255,426.644z"/>
			<path style="fill:#A44E3F;" d="M1591.412,616.719c-24.879,56.401-72.53,102.364-128.192,129.141
				c-9.172-3.69-18.449-7.38-34.262-14.654c-15.602-41.009-16.867-87.289-6.325-129.563c-36.476-28.991-51.34-82.229-34.051-127.56
				c-36.897,24.879-81.807,37.741-126.295,36.054c-44.382-1.687-88.238-17.922-123.027-45.542
				c29.94-6.431,59.352-15.392,86.024-28.885c-62.831-27.515-138.629-22.982-197.771,11.702
				c2.846-19.819,8.855-39.217,20.874-59.247c-25.934,13.81-50.497,29.94-69.051,43.961c-19.503,34.367-36.159,73.162-46.28,109.533
				c-33.629-33.946-42.907-85.918-30.151-131.988c-7.59,11.491-15.286,23.087-22.876,34.578
				c-13.705-50.708,1.897-105,32.786-148.328c5.904-8.328,12.229-16.129,19.081-23.404c14.654,15.392,37.108,25.617,57.982,32.47
				c100.361,32.575,209.156,39.111,312.68,18.554c16.973,36.16,38.373,59.774,65.15,72.846c26.777,13.178,58.509,15.919,87.078,7.38
				C1465.539,490.846,1517.933,570.755,1591.412,616.719z"/>
		</g>
		<g>
			<path style="fill:#F3AB8A;" d="M1390.819,706.79c20.707-10.321,45.208-13.928,67.387-7.345
				c22.18,6.583,41.444,24.061,47.706,46.335c6.95,24.718-3.087,52.582-22.395,69.51c-19.307,16.927-46.544,23.368-71.996,19.977
				c-25.452-3.389-49.116-15.919-68.56-32.689"/>
			<g>
				<path style="fill:#E87C65;" d="M1382.935,777.948c5.677-11.532,14.458-21.708,25.679-27.978
					c11.221-6.271,24.938-8.39,37.24-4.664c12.302,3.726,22.838,13.588,26.308,25.964c-13.752-8.555-30.356-12.432-46.474-10.851
					C1409.571,762.002,1394.036,769.031,1382.935,777.948z"/>
				<path style="fill:#E87C65;" d="M1422.146,796.644c6.021-13.409,5.302-29.649-1.882-42.471
					c5.963-1.453,12.284-1.408,18.264,0.348C1442.556,769.861,1433.683,787.508,1422.146,796.644z"/>
			</g>
		</g>
		<path style="fill:#FAFCF4;" d="M1388.054,1140.98l-3.901,62.937c-176.686,29.834-341.143,13.916-468.703-28.253l2.319-15.391
			l-1.265,0.211c2.319-13.916,3.268-27.831,5.587-43.223C1051.128,1160.272,1232.769,1172.5,1388.054,1140.98z"/>
		<path style="fill:#FAFCF4;" d="M1381.097,1252.199l-3.901,62.937c-180.271,28.042-346.098,3.584-477.348-37.53l8.855-57.771
			C1041.64,1261.054,1223.175,1281.401,1381.097,1252.199z"/>
		<g>
			<path style="fill:#576AAC;" d="M1340.291,915.058c-11.925,72.192,2.93,148.497,41.067,210.941
				C1326.299,1073.529,1308.708,985.583,1340.291,915.058z"/>
			<g>
				<path style="fill:#576AAC;" d="M917.551,1161.724c8.8-49.787,20.916-102.867,34.606-152.27
					C927.469,1055.122,914.116,1111.149,917.551,1161.724z"/>
				<path style="fill:#576AAC;" d="M931.655,1068.099c-18.755-43.357-24.422-85.657-12.929-144.051
					c-4.921,81.873,16.435,123.151,16.435,123.151S937.615,1061.724,931.655,1068.099z"/>
				<path style="fill:#576AAC;" d="M933.093,1067.781c-21.089-19.307-38.335-42.793-50.444-68.694
					c4.942,32.961,20.7,64.21,44.262,87.783C929.054,1080.178,931.198,1073.484,933.093,1067.781z"/>
			</g>
		</g>
		<g>
			<path style="fill:#FAB395;" d="M1846.17,714.393c-1.217-28.373-2.404-57.113,3.561-84.878c1.193-5.554,2.747-11.211,6.208-15.715
				c3.461-4.504,9.255-7.633,14.809-6.439c5.322,1.144,9.104,5.774,12.121,10.305c7.996,12.01,13.807,25.469,12.965,41.388
				c19.989-18.518,40.182-37.19,63.684-50.979c5.162-3.03,10.659-5.871,16.625-6.367c5.965-0.497,12.53,1.876,15.406,7.125
				c2.744,5.009,1.582,11.208-0.153,16.648c-5.001,15.68-14.256,29.981-26.665,39.598c9.705-0.01,19.035-3.421,28.253-6.457
				c9.218-3.036,18.908-5.768,28.512-4.372c9.605,1.397,19.1,8,20.879,17.541c1.921,10.301-5.5,20.183-14.15,26.096
				c-8.65,5.914-18.837,9.399-26.905,17.84c6.433,3.221,13.738,4.137,20.883,4.969c7.147,0.831,14.448,1.666,20.948,4.747
				c6.5,3.081,12.171,8.888,13.077,16.025c0.945,7.44-3.526,14.767-9.607,19.155c-6.082,4.388-13.553,6.343-20.9,7.846
				c-7.348,1.501-14.862,2.668-21.722,5.543c8.143,6.599,18.991,8.584,28.412,13.178c9.422,4.593,18.263,14.253,15.661,24.406
				c-1.483,5.792-6.473,10.171-11.995,12.463c-5.523,2.292-11.591,2.823-17.548,3.328c-32.509,2.756-65.018,5.511-102.99,8.753
				C1875.24,811.217,1848.423,766.965,1846.17,714.393z"/>
			<path style="fill:#E87C65;" d="M1904.16,681.833c8.665,15.925,11.651,27.206,12.153,41.46
				c0.502,14.254-2.155,22.739-9.398,36.737c15.047-4.901,24.613-21.453,23.62-37.247
				C1929.541,706.989,1919.318,692.658,1904.16,681.833z"/>
		</g>
		<g>
			<path style="fill:#FAB395;" d="M667.945,740.838c14.47-24.437,29.088-49.21,36.941-76.501c1.571-5.459,2.873-11.179,1.948-16.783
				c-0.924-5.605-4.553-11.099-10.013-12.669c-5.231-1.504-10.752,0.791-15.551,3.36c-12.72,6.81-24.197,15.931-30.973,30.361
				c-8.875-25.763-17.858-51.757-32.063-75.008c-3.12-5.109-6.625-10.209-11.649-13.463c-5.023-3.254-11.93-4.263-16.945-0.994
				c-4.783,3.118-6.687,9.132-7.726,14.747c-2.995,16.183-1.59,33.159,4.807,47.497c-8.551-4.592-15.164-12.004-21.856-19.034
				c-6.692-7.029-13.944-14.012-23.069-17.316c-9.125-3.304-20.614-1.967-26.688,5.603c-6.556,8.173-4.682,20.388,0.151,29.685
				c4.832,9.298,12.166,17.181,15.291,28.431c-7.191-0.199-14.063-2.84-20.754-5.482c-6.691-2.642-13.521-5.353-20.707-5.707
				c-7.185-0.353-14.926,2.088-19.094,7.952c-4.346,6.111-3.866,14.682-0.577,21.422c3.289,6.74,8.951,11.99,14.719,16.784
				c5.768,4.794,11.841,9.37,16.53,15.144c-10.294,1.971-20.795-1.401-31.268-1.802c-10.474-0.399-22.829,3.942-25.331,14.119
				c-1.427,5.807,0.903,12.022,4.689,16.65c3.786,4.628,8.884,7.961,13.897,11.22c27.355,17.779,54.709,35.56,86.651,56.348
				C596.599,812.46,641.134,786.115,667.945,740.838z"/>
			<path style="fill:#E87C65;" d="M632.202,684.753c-15.156,9.946-23.117,18.48-30.29,30.807
				c-7.173,12.328-8.839,21.062-9.063,36.822c-10.949-11.425-11.566-30.533-3.232-43.986
				C597.951,694.943,613.73,687.138,632.202,684.753z"/>
		</g>
		<path style="fill:#DFA74F;" d="M1103.733,1559.264c38.792-48.524,103.315-75.167,165.041-68.146
			C1211.249,1500.562,1156.273,1525.118,1103.733,1559.264z"/>
		<path style="fill:#DFA74F;" d="M1062.08,1544.247c-38.866-41.896-79.127-86.297-93.005-141.733
			c4.257,30.394,11.119,61.127,27.224,87.251C1012.404,1515.891,1039.167,1536.957,1062.08,1544.247z"/>
		<path style="fill:#DFA74F;" d="M1021.94,1546.878c-34.555-10.876-66.357-30.382-91.716-56.254
			c4.748,18.92,16.397,36.029,32.26,47.381C978.348,1549.358,998.299,1554.864,1021.94,1546.878z"/>
		<path style="fill:#FAFCF4;" d="M1011.025,1779.254c24.657-7.807,49.314-15.614,73.972-23.422
			c4.773-1.512,10.041-3.008,14.652-1.055c6.277,2.659,8.514,11.036,6.267,17.472c-2.248,6.435-7.781,11.15-13.53,14.813
			c-15.399,9.811-33.527,14.214-51.284,18.464c-6.054,1.45-12.229,2.909-18.438,2.438c-6.208-0.471-12.569-3.194-15.895-8.457
			C1003.443,1794.243,1001.705,1782.206,1011.025,1779.254z"/>
		<path style="fill:#FAFCF4;" d="M1020.015,1818.873c24.634-2.738,48.88-8.945,71.798-18.382c6.363-2.62,13.677-5.483,19.829-2.399
			c6.084,3.05,8.281,11.173,6.328,17.692c-1.951,6.519-7.094,11.597-12.609,15.584c-15.352,11.099-34.469,15.746-53.308,17.739
			c-8.814,0.933-18.235,1.221-25.968-3.11C1018.35,1841.667,1013.47,1831.144,1020.015,1818.873z"/>
		<path style="fill:#FAFCF4;" d="M1539.854,2169.579c22.186-15.087,44.373-30.173,66.559-45.26
			c6.874-4.673,15.766-9.475,22.962-5.315c7.365,4.257,7.425,15.004,4.574,23.018c-4.401,12.369-13.321,22.757-23.745,30.74
			c-10.424,7.981-22.351,13.752-34.372,19.033c-6.148,2.701-12.477,5.323-19.17,5.874c-6.693,0.55-13.911-1.282-18.392-6.285
			C1533.79,2186.381,1530.995,2175.603,1539.854,2169.579z"/>
		<path style="fill:#FAFCF4;" d="M1556.766,2215.223c29.555-15.011,59.109-30.022,88.664-45.033
			c3.215-1.633,6.638-3.31,10.234-3.039c6.529,0.49,11.02,7.571,10.806,14.115c-0.214,6.543-3.895,12.445-7.91,17.617
			c-17.938,23.107-45.342,38.633-74.383,42.141c-7.979,0.965-16.594,0.92-23.388-3.374
			C1553.995,2233.356,1547.349,2220.006,1556.766,2215.223z"/>
	</g>
</g>
</svg>
